G75*
%MOIN*%
%OFA0B0*%
%FSLAX25Y25*%
%IPPOS*%
%LPD*%
%AMOC8*
5,1,8,0,0,1.08239X$1,22.5*
%
%ADD10C,0.08858*%
%ADD11C,0.05543*%
%ADD12R,0.05150X0.05150*%
%ADD13C,0.06000*%
%ADD14C,0.04000*%
%ADD15C,0.03962*%
%ADD16C,0.03200*%
%ADD17C,0.08600*%
%ADD18C,0.10000*%
%ADD19C,0.05000*%
D10*
X0093768Y0026012D03*
X0113453Y0026012D03*
X0213827Y0026150D03*
X0233512Y0026150D03*
X0253197Y0026150D03*
X0272803Y0026150D03*
X0292488Y0026150D03*
X0312173Y0026150D03*
X0331661Y0026150D03*
X0351346Y0026150D03*
X0371031Y0026150D03*
X0390815Y0026169D03*
X0410500Y0026169D03*
X0430185Y0026169D03*
D11*
X0433886Y0058256D03*
X0386642Y0058256D03*
X0374772Y0058315D03*
X0327528Y0058315D03*
X0315717Y0058276D03*
X0268472Y0058276D03*
X0256740Y0058354D03*
X0209496Y0058354D03*
X0209496Y0105598D03*
X0233118Y0113472D03*
X0256740Y0105598D03*
X0268472Y0105520D03*
X0292094Y0113394D03*
X0315717Y0105520D03*
X0327528Y0105559D03*
X0351150Y0113433D03*
X0374772Y0105559D03*
X0386642Y0105500D03*
X0410264Y0113374D03*
X0433886Y0105500D03*
D12*
X0193492Y0131228D03*
X0132862Y0131228D03*
X0153335Y0015480D03*
X0173020Y0015480D03*
D13*
X0035606Y0027370D02*
X0029606Y0027370D01*
X0029606Y0037370D02*
X0035606Y0037370D01*
X0035606Y0047370D02*
X0029606Y0047370D01*
X0029606Y0057370D02*
X0035606Y0057370D01*
X0035606Y0067370D02*
X0029606Y0067370D01*
X0029843Y0089339D02*
X0035843Y0089339D01*
X0035843Y0099339D02*
X0029843Y0099339D01*
X0029843Y0109339D02*
X0035843Y0109339D01*
X0035843Y0119339D02*
X0029843Y0119339D01*
X0029843Y0129339D02*
X0035843Y0129339D01*
X0179598Y0149879D02*
X0182134Y0144441D01*
X0191197Y0148667D02*
X0188661Y0154105D01*
X0197724Y0158331D02*
X0200260Y0152893D01*
X0245402Y0153937D02*
X0245402Y0159937D01*
X0255402Y0159937D02*
X0255402Y0153937D01*
X0265402Y0153937D02*
X0265402Y0159937D01*
X0275402Y0159937D02*
X0275402Y0153937D01*
D14*
X0022761Y0010838D02*
X0020807Y0008883D01*
X0168303Y0008883D01*
X0166238Y0010949D01*
X0165020Y0013889D01*
X0165020Y0028485D01*
X0159608Y0033898D01*
X0112967Y0033898D01*
X0112511Y0033441D01*
X0114930Y0033441D01*
X0117661Y0032310D01*
X0119751Y0030220D01*
X0120882Y0027490D01*
X0120882Y0024534D01*
X0119751Y0021804D01*
X0117661Y0019714D01*
X0114930Y0018583D01*
X0111975Y0018583D01*
X0109244Y0019714D01*
X0107155Y0021804D01*
X0106024Y0024534D01*
X0106024Y0026954D01*
X0098299Y0019230D01*
X0095359Y0018012D01*
X0092176Y0018012D01*
X0089236Y0019230D01*
X0086986Y0021480D01*
X0085822Y0024289D01*
X0084719Y0023187D01*
X0082888Y0022428D01*
X0080907Y0022428D01*
X0079987Y0022809D01*
X0039531Y0022809D01*
X0039005Y0022284D01*
X0036800Y0021370D01*
X0028413Y0021370D01*
X0026208Y0022284D01*
X0024520Y0023971D01*
X0023606Y0026177D01*
X0023606Y0028564D01*
X0024520Y0030769D01*
X0026121Y0032370D01*
X0024520Y0033971D01*
X0023606Y0036177D01*
X0023606Y0038564D01*
X0024520Y0040769D01*
X0026121Y0042370D01*
X0024520Y0043971D01*
X0023606Y0046177D01*
X0023606Y0048564D01*
X0024520Y0050769D01*
X0026121Y0052370D01*
X0024520Y0053971D01*
X0023606Y0056177D01*
X0023606Y0058564D01*
X0024520Y0060769D01*
X0026121Y0062370D01*
X0024520Y0063971D01*
X0023606Y0066177D01*
X0023606Y0068564D01*
X0024520Y0070769D01*
X0026208Y0072457D01*
X0028413Y0073370D01*
X0032101Y0073370D01*
X0043085Y0084354D01*
X0043085Y0094545D01*
X0043785Y0096236D01*
X0045079Y0097530D01*
X0046770Y0098230D01*
X0058215Y0098230D01*
X0059135Y0098611D01*
X0061117Y0098611D01*
X0062948Y0097853D01*
X0064349Y0096451D01*
X0065107Y0094621D01*
X0065107Y0092639D01*
X0064349Y0090808D01*
X0064038Y0090497D01*
X0064719Y0090215D01*
X0066120Y0088814D01*
X0066431Y0088063D01*
X0066431Y0112231D01*
X0066050Y0113151D01*
X0066050Y0115133D01*
X0066809Y0116963D01*
X0068210Y0118364D01*
X0070041Y0119123D01*
X0072022Y0119123D01*
X0073853Y0118364D01*
X0074082Y0118136D01*
X0074082Y0119306D01*
X0074212Y0119620D01*
X0065946Y0119620D01*
X0065946Y0113227D01*
X0065246Y0111536D01*
X0064372Y0110662D01*
X0064372Y0110156D01*
X0063671Y0108465D01*
X0062377Y0107171D01*
X0060009Y0104803D01*
X0059341Y0103190D01*
X0058047Y0101896D01*
X0058047Y0101896D01*
X0055606Y0099455D01*
X0053915Y0098754D01*
X0045890Y0098754D01*
X0043868Y0096733D01*
X0043868Y0096733D01*
X0042574Y0095439D01*
X0040884Y0094739D01*
X0039728Y0094739D01*
X0039261Y0094272D01*
X0039751Y0093915D01*
X0040419Y0093247D01*
X0040974Y0092483D01*
X0041403Y0091642D01*
X0041695Y0090744D01*
X0041843Y0089811D01*
X0041843Y0089339D01*
X0032843Y0089339D01*
X0032843Y0089339D01*
X0041842Y0089339D01*
X0041843Y0088866D01*
X0041695Y0087934D01*
X0041403Y0087035D01*
X0040974Y0086194D01*
X0040419Y0085430D01*
X0039751Y0084762D01*
X0038987Y0084207D01*
X0038146Y0083778D01*
X0037248Y0083486D01*
X0036315Y0083339D01*
X0032843Y0083339D01*
X0032843Y0089338D01*
X0032842Y0089338D01*
X0032842Y0083339D01*
X0029370Y0083339D01*
X0028438Y0083486D01*
X0027539Y0083778D01*
X0026698Y0084207D01*
X0025934Y0084762D01*
X0025266Y0085430D01*
X0024711Y0086194D01*
X0024282Y0087035D01*
X0023990Y0087934D01*
X0023843Y0088866D01*
X0023843Y0089339D01*
X0032842Y0089339D01*
X0032842Y0089339D01*
X0023843Y0089339D01*
X0023843Y0089811D01*
X0023990Y0090744D01*
X0024282Y0091642D01*
X0024711Y0092483D01*
X0025266Y0093247D01*
X0025934Y0093915D01*
X0026424Y0094272D01*
X0024756Y0095940D01*
X0023843Y0098145D01*
X0023843Y0100532D01*
X0024756Y0102737D01*
X0026357Y0104339D01*
X0024756Y0105940D01*
X0023843Y0108145D01*
X0023843Y0110532D01*
X0024756Y0112737D01*
X0026357Y0114339D01*
X0024756Y0115940D01*
X0023843Y0118145D01*
X0023843Y0120532D01*
X0024756Y0122737D01*
X0026357Y0124339D01*
X0024756Y0125940D01*
X0023843Y0128145D01*
X0023843Y0130532D01*
X0024756Y0132737D01*
X0026444Y0134425D01*
X0028649Y0135339D01*
X0037036Y0135339D01*
X0039241Y0134425D01*
X0040929Y0132737D01*
X0041843Y0130532D01*
X0041843Y0128145D01*
X0040929Y0125940D01*
X0039828Y0124839D01*
X0043484Y0124839D01*
X0043484Y0132009D01*
X0043467Y0133057D01*
X0043484Y0133101D01*
X0043484Y0133149D01*
X0043885Y0134118D01*
X0044270Y0135092D01*
X0044303Y0135127D01*
X0044322Y0135171D01*
X0045063Y0135912D01*
X0059382Y0150717D01*
X0059400Y0150761D01*
X0060141Y0151502D01*
X0060870Y0152256D01*
X0060914Y0152275D01*
X0060947Y0152308D01*
X0061916Y0152709D01*
X0062877Y0153127D01*
X0062925Y0153127D01*
X0062969Y0153146D01*
X0064017Y0153146D01*
X0065065Y0153163D01*
X0065109Y0153146D01*
X0174454Y0153146D01*
X0175981Y0154812D01*
X0178144Y0155821D01*
X0180529Y0155925D01*
X0182657Y0155150D01*
X0183431Y0157278D01*
X0185044Y0159038D01*
X0187207Y0160047D01*
X0189592Y0160151D01*
X0191809Y0159344D01*
X0191925Y0159939D01*
X0192248Y0160827D01*
X0192706Y0161653D01*
X0193287Y0162397D01*
X0193978Y0163041D01*
X0194761Y0163569D01*
X0195189Y0163769D01*
X0198992Y0155612D01*
X0195189Y0163769D01*
X0195617Y0163968D01*
X0196524Y0164229D01*
X0197462Y0164344D01*
X0198406Y0164311D01*
X0199333Y0164131D01*
X0200220Y0163808D01*
X0201046Y0163350D01*
X0201790Y0162768D01*
X0202435Y0162078D01*
X0202963Y0161295D01*
X0204430Y0158148D01*
X0198992Y0155612D01*
X0198992Y0155612D01*
X0198992Y0155612D01*
X0202796Y0147455D01*
X0203224Y0147655D01*
X0204007Y0148183D01*
X0204697Y0148827D01*
X0205279Y0149571D01*
X0205737Y0150397D01*
X0206060Y0151285D01*
X0206240Y0152212D01*
X0206273Y0153156D01*
X0206158Y0154093D01*
X0205897Y0155001D01*
X0204430Y0158148D01*
X0198992Y0155612D01*
X0198992Y0155612D01*
X0202796Y0147455D01*
X0202368Y0147256D01*
X0201460Y0146995D01*
X0200523Y0146880D01*
X0199579Y0146913D01*
X0198652Y0147093D01*
X0197764Y0147416D01*
X0197234Y0147710D01*
X0196427Y0145493D01*
X0194814Y0143733D01*
X0192651Y0142725D01*
X0190266Y0142621D01*
X0189656Y0142843D01*
X0195695Y0136803D01*
X0196664Y0136803D01*
X0197766Y0136346D01*
X0198610Y0135503D01*
X0199067Y0134400D01*
X0199067Y0128057D01*
X0198610Y0126954D01*
X0197766Y0126110D01*
X0196664Y0125654D01*
X0190321Y0125654D01*
X0189218Y0126110D01*
X0188374Y0126954D01*
X0187917Y0128057D01*
X0187917Y0129025D01*
X0177751Y0139192D01*
X0176203Y0140739D01*
X0175621Y0142146D01*
X0066395Y0142146D01*
X0059105Y0134608D01*
X0099874Y0134608D01*
X0100798Y0135531D01*
X0101179Y0136451D01*
X0102580Y0137853D01*
X0104411Y0138611D01*
X0106392Y0138611D01*
X0108223Y0137853D01*
X0109624Y0136451D01*
X0110383Y0134621D01*
X0110383Y0132639D01*
X0109624Y0130808D01*
X0108430Y0129614D01*
X0109821Y0128223D01*
X0110580Y0126392D01*
X0110580Y0124411D01*
X0109821Y0122580D01*
X0109447Y0122206D01*
X0109624Y0122206D01*
X0111314Y0121506D01*
X0120290Y0112531D01*
X0120290Y0116286D01*
X0119909Y0117206D01*
X0119909Y0119188D01*
X0120667Y0121018D01*
X0122068Y0122420D01*
X0123899Y0123178D01*
X0125881Y0123178D01*
X0127711Y0122420D01*
X0129113Y0121018D01*
X0129751Y0119477D01*
X0130513Y0119792D01*
X0132495Y0119792D01*
X0133415Y0119411D01*
X0156395Y0119411D01*
X0156490Y0119372D01*
X0175057Y0119372D01*
X0176747Y0118671D01*
X0179675Y0115744D01*
X0179693Y0115736D01*
X0180321Y0115098D01*
X0180955Y0114464D01*
X0180962Y0114446D01*
X0180976Y0114431D01*
X0181312Y0113601D01*
X0181655Y0112773D01*
X0181655Y0112753D01*
X0181663Y0112735D01*
X0181655Y0111839D01*
X0181655Y0110943D01*
X0181648Y0110925D01*
X0181474Y0090030D01*
X0181839Y0089148D01*
X0181839Y0087167D01*
X0181081Y0085336D01*
X0179680Y0083935D01*
X0177849Y0083176D01*
X0175867Y0083176D01*
X0174844Y0083600D01*
X0174844Y0083116D01*
X0175265Y0082101D01*
X0175265Y0080119D01*
X0174506Y0078289D01*
X0173105Y0076887D01*
X0171274Y0076129D01*
X0169293Y0076129D01*
X0168851Y0076312D01*
X0168817Y0076229D01*
X0168847Y0076156D01*
X0168847Y0074175D01*
X0168197Y0072604D01*
X0168286Y0072514D01*
X0169044Y0070684D01*
X0169044Y0068702D01*
X0168286Y0066871D01*
X0166885Y0065470D01*
X0165054Y0064712D01*
X0163072Y0064712D01*
X0162342Y0065014D01*
X0159841Y0065014D01*
X0158150Y0065714D01*
X0156856Y0067008D01*
X0153588Y0070276D01*
X0152888Y0071967D01*
X0152888Y0090683D01*
X0128109Y0090683D01*
X0128916Y0089877D01*
X0129674Y0088046D01*
X0129674Y0087997D01*
X0129962Y0087301D01*
X0129962Y0087250D01*
X0129980Y0087204D01*
X0129962Y0086337D01*
X0129962Y0085471D01*
X0129943Y0085424D01*
X0129456Y0062341D01*
X0129523Y0061734D01*
X0129437Y0061434D01*
X0129430Y0061122D01*
X0129184Y0060563D01*
X0128605Y0058559D01*
X0128610Y0058370D01*
X0128352Y0057686D01*
X0128148Y0056984D01*
X0128030Y0056836D01*
X0127963Y0056658D01*
X0127462Y0056125D01*
X0127006Y0055554D01*
X0126840Y0055463D01*
X0125579Y0054122D01*
X0125136Y0053052D01*
X0123735Y0051651D01*
X0121904Y0050893D01*
X0120163Y0050893D01*
X0116570Y0049898D01*
X0164513Y0049898D01*
X0167453Y0048680D01*
X0177551Y0038581D01*
X0179802Y0036331D01*
X0181020Y0033391D01*
X0181020Y0013889D01*
X0179802Y0010949D01*
X0177737Y0008883D01*
X0444051Y0008883D01*
X0442018Y0010917D01*
X0440633Y0014261D01*
X0440633Y0017881D01*
X0442018Y0021225D01*
X0444578Y0023785D01*
X0447922Y0025170D01*
X0451542Y0025170D01*
X0454887Y0023785D01*
X0455502Y0023169D01*
X0455502Y0132229D01*
X0454879Y0131605D01*
X0451534Y0130220D01*
X0447914Y0130220D01*
X0444570Y0131605D01*
X0442010Y0134165D01*
X0440625Y0137509D01*
X0440625Y0141129D01*
X0442010Y0144473D01*
X0444339Y0146802D01*
X0410619Y0146802D01*
X0410619Y0146182D01*
X0409861Y0144352D01*
X0408459Y0142950D01*
X0407943Y0142736D01*
X0407097Y0141890D01*
X0407097Y0141890D01*
X0402088Y0136882D01*
X0402088Y0119871D01*
X0402469Y0118951D01*
X0402469Y0116970D01*
X0401711Y0115139D01*
X0400310Y0113738D01*
X0398479Y0112980D01*
X0396497Y0112980D01*
X0394667Y0113738D01*
X0393265Y0115139D01*
X0392507Y0116970D01*
X0392507Y0118951D01*
X0392888Y0119871D01*
X0392888Y0139702D01*
X0392968Y0139896D01*
X0322328Y0139896D01*
X0322407Y0139705D01*
X0322648Y0139464D01*
X0322865Y0138940D01*
X0323158Y0138454D01*
X0323212Y0138102D01*
X0323348Y0137773D01*
X0323348Y0137206D01*
X0323433Y0136644D01*
X0323348Y0136299D01*
X0323348Y0135943D01*
X0323131Y0135419D01*
X0318001Y0114633D01*
X0317918Y0113986D01*
X0317784Y0113752D01*
X0317719Y0113490D01*
X0317332Y0112964D01*
X0317008Y0112398D01*
X0316794Y0112233D01*
X0316634Y0112016D01*
X0316076Y0111679D01*
X0315574Y0111291D01*
X0316865Y0111291D01*
X0318986Y0110413D01*
X0320609Y0108789D01*
X0321488Y0106668D01*
X0321488Y0104372D01*
X0320609Y0102250D01*
X0318986Y0100627D01*
X0316865Y0099748D01*
X0314568Y0099748D01*
X0312447Y0100627D01*
X0312077Y0100997D01*
X0312051Y0077032D01*
X0312430Y0076117D01*
X0312430Y0074135D01*
X0311672Y0072304D01*
X0310270Y0070903D01*
X0308440Y0070145D01*
X0306458Y0070145D01*
X0304627Y0070903D01*
X0303226Y0072304D01*
X0302468Y0074135D01*
X0302468Y0076117D01*
X0302851Y0077042D01*
X0302888Y0110439D01*
X0302798Y0110905D01*
X0302889Y0111345D01*
X0302889Y0111794D01*
X0303071Y0112233D01*
X0303167Y0112698D01*
X0303419Y0113069D01*
X0303591Y0113484D01*
X0303928Y0113819D01*
X0304194Y0114213D01*
X0304569Y0114459D01*
X0304887Y0114777D01*
X0305326Y0114958D01*
X0306335Y0115623D01*
X0307636Y0116731D01*
X0307693Y0116830D01*
X0308330Y0117322D01*
X0308942Y0117843D01*
X0309051Y0117878D01*
X0309391Y0118141D01*
X0313108Y0133203D01*
X0276258Y0133203D01*
X0274568Y0133903D01*
X0273274Y0135197D01*
X0272250Y0136221D01*
X0271550Y0137912D01*
X0271550Y0142376D01*
X0268502Y0142376D01*
X0266812Y0143077D01*
X0265518Y0144371D01*
X0263707Y0146182D01*
X0263006Y0147872D01*
X0263006Y0148435D01*
X0262003Y0148850D01*
X0260402Y0150452D01*
X0260002Y0150052D01*
X0260002Y0149487D01*
X0259963Y0149395D01*
X0259959Y0149295D01*
X0259615Y0148552D01*
X0259301Y0147796D01*
X0259231Y0147726D01*
X0259189Y0147635D01*
X0258586Y0147081D01*
X0258007Y0146502D01*
X0257915Y0146464D01*
X0254617Y0143430D01*
X0254756Y0111024D01*
X0255592Y0111370D01*
X0257888Y0111370D01*
X0260010Y0110491D01*
X0261633Y0108868D01*
X0262512Y0106746D01*
X0262512Y0104450D01*
X0261633Y0102329D01*
X0260010Y0100705D01*
X0257888Y0099827D01*
X0255592Y0099827D01*
X0254803Y0100154D01*
X0254873Y0083880D01*
X0255057Y0083696D01*
X0255816Y0081865D01*
X0255816Y0079883D01*
X0255057Y0078052D01*
X0253656Y0076651D01*
X0251825Y0075893D01*
X0249844Y0075893D01*
X0248013Y0076651D01*
X0246612Y0078052D01*
X0245854Y0079883D01*
X0245854Y0080094D01*
X0245687Y0080490D01*
X0245687Y0080501D01*
X0245683Y0080510D01*
X0245683Y0081416D01*
X0245680Y0082244D01*
X0244699Y0081838D01*
X0242718Y0081838D01*
X0240887Y0082596D01*
X0240812Y0082671D01*
X0240812Y0027939D01*
X0240941Y0027627D01*
X0240941Y0024672D01*
X0239810Y0021941D01*
X0237720Y0019851D01*
X0234990Y0018720D01*
X0232034Y0018720D01*
X0229304Y0019851D01*
X0227214Y0021941D01*
X0226083Y0024672D01*
X0226083Y0027627D01*
X0226212Y0027939D01*
X0226212Y0111070D01*
X0225818Y0112020D01*
X0225818Y0114924D01*
X0226929Y0117608D01*
X0228983Y0119661D01*
X0231666Y0120772D01*
X0234570Y0120772D01*
X0237253Y0119661D01*
X0237647Y0119267D01*
X0239580Y0117334D01*
X0239465Y0145089D01*
X0239043Y0147175D01*
X0238980Y0147279D01*
X0238862Y0148068D01*
X0238704Y0148850D01*
X0238727Y0148969D01*
X0238709Y0149089D01*
X0238902Y0149863D01*
X0239055Y0150647D01*
X0239121Y0150747D01*
X0239537Y0152417D01*
X0239402Y0152744D01*
X0239402Y0161130D01*
X0240315Y0163336D01*
X0241985Y0165005D01*
X0019695Y0164602D01*
X0020091Y0164438D01*
X0022651Y0161879D01*
X0024036Y0158534D01*
X0024036Y0154914D01*
X0022651Y0151570D01*
X0020091Y0149010D01*
X0016747Y0147625D01*
X0013127Y0147625D01*
X0009783Y0149010D01*
X0009049Y0149744D01*
X0009189Y0023002D01*
X0009893Y0023706D01*
X0013237Y0025091D01*
X0016857Y0025091D01*
X0020202Y0023706D01*
X0022761Y0021146D01*
X0024146Y0017802D01*
X0024146Y0014182D01*
X0022761Y0010838D01*
X0021210Y0009287D02*
X0167899Y0009287D01*
X0165270Y0013285D02*
X0158909Y0013285D01*
X0158909Y0012309D02*
X0158453Y0011206D01*
X0157609Y0010362D01*
X0156506Y0009906D01*
X0150163Y0009906D01*
X0149060Y0010362D01*
X0148217Y0011206D01*
X0147760Y0012309D01*
X0147760Y0018652D01*
X0148217Y0019754D01*
X0149060Y0020598D01*
X0150163Y0021055D01*
X0156506Y0021055D01*
X0157609Y0020598D01*
X0158453Y0019754D01*
X0158909Y0018652D01*
X0158909Y0012309D01*
X0158909Y0017284D02*
X0165020Y0017284D01*
X0165020Y0021282D02*
X0119230Y0021282D01*
X0120882Y0025281D02*
X0165020Y0025281D01*
X0164226Y0029279D02*
X0120140Y0029279D01*
X0115324Y0033278D02*
X0160227Y0033278D01*
X0178856Y0037276D02*
X0206527Y0037276D01*
X0206527Y0041275D02*
X0174858Y0041275D01*
X0170859Y0045273D02*
X0206527Y0045273D01*
X0206527Y0049272D02*
X0166023Y0049272D01*
X0202196Y0056902D02*
X0203307Y0054219D01*
X0206527Y0051000D01*
X0206527Y0027939D01*
X0206398Y0027627D01*
X0206398Y0024672D01*
X0207529Y0021941D01*
X0209619Y0019851D01*
X0212349Y0018720D01*
X0215305Y0018720D01*
X0218035Y0019851D01*
X0220125Y0021941D01*
X0221256Y0024672D01*
X0221256Y0027627D01*
X0221127Y0027939D01*
X0221127Y0055476D01*
X0220015Y0058159D01*
X0217962Y0060212D01*
X0213631Y0064543D01*
X0210948Y0065654D01*
X0208044Y0065654D01*
X0205361Y0064543D01*
X0203307Y0062489D01*
X0202196Y0059806D01*
X0202196Y0056902D01*
X0202196Y0057269D02*
X0128231Y0057269D01*
X0129433Y0061268D02*
X0202801Y0061268D01*
X0207107Y0065266D02*
X0166392Y0065266D01*
X0159233Y0065266D02*
X0129517Y0065266D01*
X0129602Y0069265D02*
X0154600Y0069265D01*
X0152888Y0073263D02*
X0129686Y0073263D01*
X0129771Y0077262D02*
X0152888Y0077262D01*
X0152888Y0081260D02*
X0129855Y0081260D01*
X0129939Y0085259D02*
X0152888Y0085259D01*
X0152888Y0089257D02*
X0129172Y0089257D01*
X0168470Y0073263D02*
X0226212Y0073263D01*
X0226212Y0069265D02*
X0169044Y0069265D01*
X0173479Y0077262D02*
X0226212Y0077262D01*
X0226212Y0081260D02*
X0175265Y0081260D01*
X0181004Y0085259D02*
X0226212Y0085259D01*
X0226212Y0089257D02*
X0181794Y0089257D01*
X0181501Y0093256D02*
X0226212Y0093256D01*
X0226212Y0097254D02*
X0181534Y0097254D01*
X0181567Y0101253D02*
X0205679Y0101253D01*
X0206227Y0100705D02*
X0208348Y0099827D01*
X0210644Y0099827D01*
X0212765Y0100705D01*
X0214389Y0102329D01*
X0215268Y0104450D01*
X0215268Y0106746D01*
X0214389Y0108868D01*
X0212765Y0110491D01*
X0210644Y0111370D01*
X0208348Y0111370D01*
X0206227Y0110491D01*
X0204603Y0108868D01*
X0203724Y0106746D01*
X0203724Y0104450D01*
X0204603Y0102329D01*
X0206227Y0100705D01*
X0213313Y0101253D02*
X0226212Y0101253D01*
X0226212Y0105251D02*
X0215268Y0105251D01*
X0214007Y0109250D02*
X0226212Y0109250D01*
X0225818Y0113248D02*
X0181458Y0113248D01*
X0181634Y0109250D02*
X0204985Y0109250D01*
X0203724Y0105251D02*
X0181600Y0105251D01*
X0178172Y0117247D02*
X0226780Y0117247D01*
X0239564Y0121245D02*
X0128886Y0121245D01*
X0129992Y0125654D02*
X0132862Y0125654D01*
X0132862Y0131228D01*
X0132862Y0131228D01*
X0127287Y0131228D01*
X0127287Y0128358D01*
X0127403Y0127778D01*
X0127629Y0127233D01*
X0127957Y0126741D01*
X0128375Y0126323D01*
X0128866Y0125995D01*
X0129412Y0125769D01*
X0129992Y0125654D01*
X0132862Y0125654D02*
X0135732Y0125654D01*
X0136312Y0125769D01*
X0136858Y0125995D01*
X0137349Y0126323D01*
X0137767Y0126741D01*
X0138096Y0127233D01*
X0138322Y0127778D01*
X0138437Y0128358D01*
X0138437Y0131228D01*
X0132862Y0131228D01*
X0132862Y0131228D01*
X0132862Y0125654D01*
X0132862Y0129242D02*
X0132862Y0129242D01*
X0132862Y0131228D02*
X0132862Y0131228D01*
X0127287Y0131228D01*
X0127287Y0134099D01*
X0127403Y0134678D01*
X0127629Y0135224D01*
X0127957Y0135716D01*
X0128375Y0136133D01*
X0128866Y0136462D01*
X0129412Y0136688D01*
X0129992Y0136803D01*
X0132862Y0136803D01*
X0132862Y0131228D01*
X0132862Y0131228D01*
X0138437Y0131228D01*
X0138437Y0134099D01*
X0138322Y0134678D01*
X0138096Y0135224D01*
X0137767Y0135716D01*
X0137349Y0136133D01*
X0136858Y0136462D01*
X0136312Y0136688D01*
X0135732Y0136803D01*
X0132862Y0136803D01*
X0132862Y0131228D01*
X0127287Y0129242D02*
X0108802Y0129242D01*
X0110580Y0125244D02*
X0239547Y0125244D01*
X0239531Y0129242D02*
X0199067Y0129242D01*
X0187700Y0129242D02*
X0138437Y0129242D01*
X0138437Y0133241D02*
X0183702Y0133241D01*
X0179703Y0137239D02*
X0108837Y0137239D01*
X0110383Y0133241D02*
X0127287Y0133241D01*
X0132862Y0133241D02*
X0132862Y0133241D01*
X0120894Y0121245D02*
X0111575Y0121245D01*
X0115574Y0117247D02*
X0119909Y0117247D01*
X0119572Y0113248D02*
X0120290Y0113248D01*
X0067092Y0117247D02*
X0065946Y0117247D01*
X0065946Y0113248D02*
X0066050Y0113248D01*
X0066431Y0109250D02*
X0063996Y0109250D01*
X0066431Y0105251D02*
X0060457Y0105251D01*
X0057404Y0101253D02*
X0066431Y0101253D01*
X0066431Y0097254D02*
X0063546Y0097254D01*
X0065107Y0093256D02*
X0066431Y0093256D01*
X0066431Y0089257D02*
X0065677Y0089257D01*
X0044804Y0097254D02*
X0044389Y0097254D01*
X0043085Y0093256D02*
X0040411Y0093256D01*
X0041843Y0089257D02*
X0043085Y0089257D01*
X0043085Y0085259D02*
X0040248Y0085259D01*
X0032843Y0085259D02*
X0032842Y0085259D01*
X0032842Y0089257D02*
X0032843Y0089257D01*
X0025437Y0085259D02*
X0009120Y0085259D01*
X0009116Y0089257D02*
X0023843Y0089257D01*
X0025274Y0093256D02*
X0009111Y0093256D01*
X0009107Y0097254D02*
X0024212Y0097254D01*
X0024141Y0101253D02*
X0009103Y0101253D01*
X0009098Y0105251D02*
X0025445Y0105251D01*
X0023843Y0109250D02*
X0009094Y0109250D01*
X0009089Y0113248D02*
X0025267Y0113248D01*
X0024215Y0117247D02*
X0009085Y0117247D01*
X0009080Y0121245D02*
X0024138Y0121245D01*
X0025452Y0125244D02*
X0009076Y0125244D01*
X0009072Y0129242D02*
X0023843Y0129242D01*
X0025259Y0133241D02*
X0009067Y0133241D01*
X0009063Y0137239D02*
X0046347Y0137239D01*
X0043522Y0133241D02*
X0040426Y0133241D01*
X0041843Y0129242D02*
X0043484Y0129242D01*
X0043484Y0125244D02*
X0040233Y0125244D01*
X0061650Y0137239D02*
X0101967Y0137239D01*
X0065517Y0141238D02*
X0175997Y0141238D01*
X0191261Y0141238D02*
X0239481Y0141238D01*
X0239435Y0145236D02*
X0196191Y0145236D01*
X0201966Y0149235D02*
X0201966Y0149235D01*
X0205016Y0149235D02*
X0238745Y0149235D01*
X0239402Y0153233D02*
X0206263Y0153233D01*
X0204857Y0157232D02*
X0239402Y0157232D01*
X0239443Y0161230D02*
X0202993Y0161230D01*
X0196372Y0161230D02*
X0196372Y0161230D01*
X0192471Y0161230D02*
X0022920Y0161230D01*
X0024036Y0157232D02*
X0183414Y0157232D01*
X0174534Y0153233D02*
X0023340Y0153233D01*
X0020316Y0149235D02*
X0057948Y0149235D01*
X0054081Y0145236D02*
X0009054Y0145236D01*
X0009058Y0141238D02*
X0050214Y0141238D01*
X0009558Y0149235D02*
X0009049Y0149235D01*
X0009125Y0081260D02*
X0039991Y0081260D01*
X0035992Y0077262D02*
X0009129Y0077262D01*
X0009134Y0073263D02*
X0028154Y0073263D01*
X0023897Y0069265D02*
X0009138Y0069265D01*
X0009142Y0065266D02*
X0023983Y0065266D01*
X0025018Y0061268D02*
X0009147Y0061268D01*
X0009151Y0057269D02*
X0023606Y0057269D01*
X0025221Y0053270D02*
X0009156Y0053270D01*
X0009160Y0049272D02*
X0023900Y0049272D01*
X0023980Y0045273D02*
X0009164Y0045273D01*
X0009169Y0041275D02*
X0025026Y0041275D01*
X0023606Y0037276D02*
X0009173Y0037276D01*
X0009178Y0033278D02*
X0025213Y0033278D01*
X0023903Y0029279D02*
X0009182Y0029279D01*
X0009187Y0025281D02*
X0023977Y0025281D01*
X0022625Y0021282D02*
X0087183Y0021282D01*
X0100352Y0021282D02*
X0107676Y0021282D01*
X0106024Y0025281D02*
X0104351Y0025281D01*
X0147760Y0017284D02*
X0024146Y0017284D01*
X0023775Y0013285D02*
X0147760Y0013285D01*
X0178140Y0009287D02*
X0443648Y0009287D01*
X0441037Y0013285D02*
X0180770Y0013285D01*
X0181020Y0017284D02*
X0440633Y0017284D01*
X0436483Y0021961D02*
X0434393Y0019871D01*
X0431663Y0018740D01*
X0428707Y0018740D01*
X0425977Y0019871D01*
X0423887Y0021961D01*
X0422756Y0024692D01*
X0422756Y0027647D01*
X0422885Y0027959D01*
X0422885Y0056007D01*
X0423996Y0058690D01*
X0426050Y0060744D01*
X0429751Y0064445D01*
X0432434Y0065556D01*
X0435338Y0065556D01*
X0438021Y0064445D01*
X0440074Y0062391D01*
X0441186Y0059708D01*
X0441186Y0056804D01*
X0440074Y0054121D01*
X0437485Y0051531D01*
X0437485Y0027959D01*
X0437614Y0027647D01*
X0437614Y0024692D01*
X0436483Y0021961D01*
X0435805Y0021282D02*
X0442076Y0021282D01*
X0437614Y0025281D02*
X0455502Y0025281D01*
X0455502Y0029279D02*
X0437485Y0029279D01*
X0437485Y0033278D02*
X0455502Y0033278D01*
X0455502Y0037276D02*
X0437485Y0037276D01*
X0437485Y0041275D02*
X0455502Y0041275D01*
X0455502Y0045273D02*
X0437485Y0045273D01*
X0437485Y0049272D02*
X0455502Y0049272D01*
X0455502Y0053270D02*
X0439224Y0053270D01*
X0441186Y0057269D02*
X0455502Y0057269D01*
X0455502Y0061268D02*
X0440540Y0061268D01*
X0436038Y0065266D02*
X0455502Y0065266D01*
X0455502Y0069265D02*
X0417800Y0069265D01*
X0417800Y0073263D02*
X0455502Y0073263D01*
X0455502Y0077262D02*
X0417800Y0077262D01*
X0417800Y0081260D02*
X0455502Y0081260D01*
X0455502Y0085259D02*
X0417800Y0085259D01*
X0417800Y0089257D02*
X0455502Y0089257D01*
X0455502Y0093256D02*
X0417800Y0093256D01*
X0417800Y0097254D02*
X0455502Y0097254D01*
X0455502Y0101253D02*
X0437801Y0101253D01*
X0437155Y0100607D02*
X0438779Y0102231D01*
X0439657Y0104352D01*
X0439657Y0106648D01*
X0438779Y0108769D01*
X0437155Y0110393D01*
X0435034Y0111272D01*
X0432738Y0111272D01*
X0430616Y0110393D01*
X0428993Y0108769D01*
X0428114Y0106648D01*
X0428114Y0104352D01*
X0428993Y0102231D01*
X0430616Y0100607D01*
X0432738Y0099728D01*
X0435034Y0099728D01*
X0437155Y0100607D01*
X0429971Y0101253D02*
X0417800Y0101253D01*
X0417800Y0105251D02*
X0428114Y0105251D01*
X0429473Y0109250D02*
X0417800Y0109250D01*
X0417800Y0113248D02*
X0455502Y0113248D01*
X0455502Y0109250D02*
X0438299Y0109250D01*
X0439657Y0105251D02*
X0455502Y0105251D01*
X0455502Y0117247D02*
X0416700Y0117247D01*
X0416689Y0117273D02*
X0414635Y0119326D01*
X0414399Y0119563D01*
X0411716Y0120674D01*
X0408812Y0120674D01*
X0406129Y0119563D01*
X0404075Y0117509D01*
X0402964Y0114826D01*
X0402964Y0111922D01*
X0403200Y0111352D01*
X0403200Y0027959D01*
X0403071Y0027647D01*
X0403071Y0024692D01*
X0404202Y0021961D01*
X0406292Y0019871D01*
X0409022Y0018740D01*
X0411978Y0018740D01*
X0414708Y0019871D01*
X0416798Y0021961D01*
X0417929Y0024692D01*
X0417929Y0027647D01*
X0417800Y0027959D01*
X0417800Y0114590D01*
X0416689Y0117273D01*
X0403966Y0117247D02*
X0402469Y0117247D01*
X0402088Y0121245D02*
X0455502Y0121245D01*
X0455502Y0125244D02*
X0402088Y0125244D01*
X0402088Y0129242D02*
X0455502Y0129242D01*
X0442934Y0133241D02*
X0402088Y0133241D01*
X0402445Y0137239D02*
X0440737Y0137239D01*
X0440670Y0141238D02*
X0406444Y0141238D01*
X0410227Y0145236D02*
X0442774Y0145236D01*
X0392888Y0137239D02*
X0323348Y0137239D01*
X0322593Y0133241D02*
X0392888Y0133241D01*
X0392888Y0129242D02*
X0321607Y0129242D01*
X0320620Y0125244D02*
X0392888Y0125244D01*
X0392888Y0121245D02*
X0319633Y0121245D01*
X0318646Y0117247D02*
X0344828Y0117247D01*
X0344961Y0117568D02*
X0343850Y0114885D01*
X0343850Y0111981D01*
X0344046Y0111506D01*
X0344046Y0027939D01*
X0343917Y0027627D01*
X0343917Y0024672D01*
X0345048Y0021941D01*
X0347138Y0019851D01*
X0349869Y0018720D01*
X0352824Y0018720D01*
X0355555Y0019851D01*
X0357645Y0021941D01*
X0358776Y0024672D01*
X0358776Y0027627D01*
X0358646Y0027939D01*
X0358646Y0114688D01*
X0357535Y0117371D01*
X0355482Y0119425D01*
X0355285Y0119622D01*
X0352602Y0120733D01*
X0349698Y0120733D01*
X0347014Y0119622D01*
X0344961Y0117568D01*
X0343850Y0113248D02*
X0317541Y0113248D01*
X0322635Y0108828D02*
X0324258Y0110452D01*
X0326379Y0111331D01*
X0328676Y0111331D01*
X0330797Y0110452D01*
X0332421Y0108828D01*
X0333299Y0106707D01*
X0333299Y0104411D01*
X0332421Y0102290D01*
X0330797Y0100666D01*
X0328676Y0099787D01*
X0326379Y0099787D01*
X0324258Y0100666D01*
X0322635Y0102290D01*
X0321756Y0104411D01*
X0321756Y0106707D01*
X0322635Y0108828D01*
X0323056Y0109250D02*
X0320149Y0109250D01*
X0321488Y0105251D02*
X0321756Y0105251D01*
X0323672Y0101253D02*
X0319612Y0101253D01*
X0312073Y0097254D02*
X0344046Y0097254D01*
X0344046Y0093256D02*
X0312069Y0093256D01*
X0312064Y0089257D02*
X0344046Y0089257D01*
X0344046Y0085259D02*
X0312060Y0085259D01*
X0302860Y0085259D02*
X0299788Y0085259D01*
X0299788Y0089257D02*
X0302864Y0089257D01*
X0302869Y0093256D02*
X0299788Y0093256D01*
X0299788Y0097254D02*
X0302873Y0097254D01*
X0302878Y0101253D02*
X0299788Y0101253D01*
X0299788Y0105251D02*
X0302882Y0105251D01*
X0302886Y0109250D02*
X0299788Y0109250D01*
X0299788Y0113248D02*
X0303493Y0113248D01*
X0299788Y0114452D02*
X0298677Y0117135D01*
X0296623Y0119189D01*
X0296230Y0119582D01*
X0293547Y0120694D01*
X0290642Y0120694D01*
X0287959Y0119582D01*
X0285906Y0117529D01*
X0284794Y0114846D01*
X0284794Y0111942D01*
X0285188Y0110991D01*
X0285188Y0027939D01*
X0285059Y0027627D01*
X0285059Y0024672D01*
X0286190Y0021941D01*
X0288280Y0019851D01*
X0291010Y0018720D01*
X0293966Y0018720D01*
X0296696Y0019851D01*
X0298786Y0021941D01*
X0299917Y0024672D01*
X0299917Y0027627D01*
X0299788Y0027939D01*
X0299788Y0114452D01*
X0298565Y0117247D02*
X0308233Y0117247D01*
X0310157Y0121245D02*
X0254712Y0121245D01*
X0254729Y0117247D02*
X0285789Y0117247D01*
X0284794Y0113248D02*
X0254746Y0113248D01*
X0261251Y0109250D02*
X0264040Y0109250D01*
X0263579Y0108789D02*
X0262701Y0106668D01*
X0262701Y0104372D01*
X0263579Y0102250D01*
X0265203Y0100627D01*
X0267324Y0099748D01*
X0269620Y0099748D01*
X0271742Y0100627D01*
X0273365Y0102250D01*
X0274244Y0104372D01*
X0274244Y0106668D01*
X0273365Y0108789D01*
X0271742Y0110413D01*
X0269620Y0111291D01*
X0267324Y0111291D01*
X0265203Y0110413D01*
X0263579Y0108789D01*
X0262701Y0105251D02*
X0262512Y0105251D01*
X0260557Y0101253D02*
X0264577Y0101253D01*
X0272368Y0101253D02*
X0285188Y0101253D01*
X0285188Y0105251D02*
X0274244Y0105251D01*
X0272905Y0109250D02*
X0285188Y0109250D01*
X0285188Y0097254D02*
X0254815Y0097254D01*
X0254833Y0093256D02*
X0285188Y0093256D01*
X0285188Y0089257D02*
X0254850Y0089257D01*
X0254867Y0085259D02*
X0285188Y0085259D01*
X0285188Y0081260D02*
X0255816Y0081260D01*
X0254267Y0077262D02*
X0285188Y0077262D01*
X0285188Y0073263D02*
X0240812Y0073263D01*
X0240812Y0069265D02*
X0285188Y0069265D01*
X0285188Y0065266D02*
X0270672Y0065266D01*
X0269924Y0065576D02*
X0272608Y0064464D01*
X0276938Y0060134D01*
X0278992Y0058080D01*
X0280103Y0055397D01*
X0280103Y0027939D01*
X0280232Y0027627D01*
X0280232Y0024672D01*
X0279101Y0021941D01*
X0277011Y0019851D01*
X0274281Y0018720D01*
X0271325Y0018720D01*
X0268595Y0019851D01*
X0266505Y0021941D01*
X0265374Y0024672D01*
X0265374Y0027627D01*
X0265503Y0027939D01*
X0265503Y0050921D01*
X0262567Y0053857D01*
X0260497Y0051787D01*
X0260497Y0027939D01*
X0260626Y0027627D01*
X0260626Y0024672D01*
X0259495Y0021941D01*
X0257405Y0019851D01*
X0254675Y0018720D01*
X0251719Y0018720D01*
X0248989Y0019851D01*
X0246899Y0021941D01*
X0245768Y0024672D01*
X0245768Y0027627D01*
X0245897Y0027939D01*
X0245897Y0056263D01*
X0247008Y0058946D01*
X0249062Y0061000D01*
X0252605Y0064543D01*
X0255288Y0065654D01*
X0258192Y0065654D01*
X0260875Y0064543D01*
X0262646Y0062773D01*
X0264337Y0064464D01*
X0267020Y0065576D01*
X0269924Y0065576D01*
X0266273Y0065266D02*
X0259130Y0065266D01*
X0254351Y0065266D02*
X0240812Y0065266D01*
X0240812Y0061268D02*
X0249330Y0061268D01*
X0246314Y0057269D02*
X0240812Y0057269D01*
X0240812Y0053270D02*
X0245897Y0053270D01*
X0245897Y0049272D02*
X0240812Y0049272D01*
X0240812Y0045273D02*
X0245897Y0045273D01*
X0245897Y0041275D02*
X0240812Y0041275D01*
X0240812Y0037276D02*
X0245897Y0037276D01*
X0245897Y0033278D02*
X0240812Y0033278D01*
X0240812Y0029279D02*
X0245897Y0029279D01*
X0245768Y0025281D02*
X0240941Y0025281D01*
X0239151Y0021282D02*
X0247558Y0021282D01*
X0258836Y0021282D02*
X0267164Y0021282D01*
X0265374Y0025281D02*
X0260626Y0025281D01*
X0260497Y0029279D02*
X0265503Y0029279D01*
X0265503Y0033278D02*
X0260497Y0033278D01*
X0260497Y0037276D02*
X0265503Y0037276D01*
X0265503Y0041275D02*
X0260497Y0041275D01*
X0260497Y0045273D02*
X0265503Y0045273D01*
X0265503Y0049272D02*
X0260497Y0049272D01*
X0261980Y0053270D02*
X0263154Y0053270D01*
X0279328Y0057269D02*
X0285188Y0057269D01*
X0285188Y0053270D02*
X0280103Y0053270D01*
X0280103Y0049272D02*
X0285188Y0049272D01*
X0285188Y0045273D02*
X0280103Y0045273D01*
X0280103Y0041275D02*
X0285188Y0041275D01*
X0285188Y0037276D02*
X0280103Y0037276D01*
X0280103Y0033278D02*
X0285188Y0033278D01*
X0285188Y0029279D02*
X0280103Y0029279D01*
X0280232Y0025281D02*
X0285059Y0025281D01*
X0286849Y0021282D02*
X0278442Y0021282D01*
X0298127Y0021282D02*
X0306534Y0021282D01*
X0305875Y0021941D02*
X0307965Y0019851D01*
X0310695Y0018720D01*
X0313651Y0018720D01*
X0316381Y0019851D01*
X0318471Y0021941D01*
X0319602Y0024672D01*
X0319602Y0027627D01*
X0319473Y0027939D01*
X0319473Y0051709D01*
X0321642Y0053877D01*
X0324361Y0051157D01*
X0324361Y0027939D01*
X0324232Y0027627D01*
X0324232Y0024672D01*
X0325363Y0021941D01*
X0327453Y0019851D01*
X0330184Y0018720D01*
X0333139Y0018720D01*
X0335870Y0019851D01*
X0337960Y0021941D01*
X0339091Y0024672D01*
X0339091Y0027627D01*
X0338961Y0027939D01*
X0338961Y0055633D01*
X0337850Y0058316D01*
X0335797Y0060370D01*
X0331663Y0064504D01*
X0328980Y0065615D01*
X0326075Y0065615D01*
X0323392Y0064504D01*
X0321602Y0062714D01*
X0319852Y0064464D01*
X0317169Y0065576D01*
X0314264Y0065576D01*
X0311581Y0064464D01*
X0308038Y0060921D01*
X0305985Y0058867D01*
X0304873Y0056184D01*
X0304873Y0027939D01*
X0304744Y0027627D01*
X0304744Y0024672D01*
X0305875Y0021941D01*
X0304744Y0025281D02*
X0299917Y0025281D01*
X0299788Y0029279D02*
X0304873Y0029279D01*
X0304873Y0033278D02*
X0299788Y0033278D01*
X0299788Y0037276D02*
X0304873Y0037276D01*
X0304873Y0041275D02*
X0299788Y0041275D01*
X0299788Y0045273D02*
X0304873Y0045273D01*
X0304873Y0049272D02*
X0299788Y0049272D01*
X0299788Y0053270D02*
X0304873Y0053270D01*
X0305323Y0057269D02*
X0299788Y0057269D01*
X0299788Y0061268D02*
X0308385Y0061268D01*
X0313517Y0065266D02*
X0299788Y0065266D01*
X0299788Y0069265D02*
X0344046Y0069265D01*
X0344046Y0073263D02*
X0312069Y0073263D01*
X0312051Y0077262D02*
X0344046Y0077262D01*
X0344046Y0081260D02*
X0312056Y0081260D01*
X0302856Y0081260D02*
X0299788Y0081260D01*
X0299788Y0077262D02*
X0302851Y0077262D01*
X0302829Y0073263D02*
X0299788Y0073263D01*
X0317916Y0065266D02*
X0325233Y0065266D01*
X0329822Y0065266D02*
X0344046Y0065266D01*
X0344046Y0061268D02*
X0334899Y0061268D01*
X0338284Y0057269D02*
X0344046Y0057269D01*
X0344046Y0053270D02*
X0338961Y0053270D01*
X0338961Y0049272D02*
X0344046Y0049272D01*
X0344046Y0045273D02*
X0338961Y0045273D01*
X0338961Y0041275D02*
X0344046Y0041275D01*
X0344046Y0037276D02*
X0338961Y0037276D01*
X0338961Y0033278D02*
X0344046Y0033278D01*
X0344046Y0029279D02*
X0338961Y0029279D01*
X0339091Y0025281D02*
X0343917Y0025281D01*
X0345707Y0021282D02*
X0337301Y0021282D01*
X0326022Y0021282D02*
X0317812Y0021282D01*
X0319602Y0025281D02*
X0324232Y0025281D01*
X0324361Y0029279D02*
X0319473Y0029279D01*
X0319473Y0033278D02*
X0324361Y0033278D01*
X0324361Y0037276D02*
X0319473Y0037276D01*
X0319473Y0041275D02*
X0324361Y0041275D01*
X0324361Y0045273D02*
X0319473Y0045273D01*
X0319473Y0049272D02*
X0324361Y0049272D01*
X0322248Y0053270D02*
X0321035Y0053270D01*
X0285188Y0061268D02*
X0275804Y0061268D01*
X0247403Y0077262D02*
X0240812Y0077262D01*
X0240812Y0081260D02*
X0245683Y0081260D01*
X0226212Y0065266D02*
X0211886Y0065266D01*
X0216907Y0061268D02*
X0226212Y0061268D01*
X0226212Y0057269D02*
X0220384Y0057269D01*
X0221127Y0053270D02*
X0226212Y0053270D01*
X0226212Y0049272D02*
X0221127Y0049272D01*
X0221127Y0045273D02*
X0226212Y0045273D01*
X0226212Y0041275D02*
X0221127Y0041275D01*
X0221127Y0037276D02*
X0226212Y0037276D01*
X0226212Y0033278D02*
X0221127Y0033278D01*
X0221127Y0029279D02*
X0226212Y0029279D01*
X0226083Y0025281D02*
X0221256Y0025281D01*
X0219466Y0021282D02*
X0227873Y0021282D01*
X0208188Y0021282D02*
X0181020Y0021282D01*
X0181020Y0025281D02*
X0206398Y0025281D01*
X0206527Y0029279D02*
X0181020Y0029279D01*
X0181020Y0033278D02*
X0206527Y0033278D01*
X0204256Y0053270D02*
X0125226Y0053270D01*
X0254695Y0125244D02*
X0311144Y0125244D01*
X0312131Y0129242D02*
X0254678Y0129242D01*
X0254660Y0133241D02*
X0276168Y0133241D01*
X0271828Y0137239D02*
X0254643Y0137239D01*
X0254626Y0141238D02*
X0271550Y0141238D01*
X0264652Y0145236D02*
X0256581Y0145236D01*
X0259931Y0149235D02*
X0261619Y0149235D01*
X0239497Y0137239D02*
X0195259Y0137239D01*
X0199067Y0133241D02*
X0239514Y0133241D01*
X0200101Y0153233D02*
X0200101Y0153233D01*
X0198237Y0157232D02*
X0198237Y0157232D01*
X0202466Y0157232D02*
X0202466Y0157232D01*
X0331999Y0109250D02*
X0344046Y0109250D01*
X0344046Y0105251D02*
X0333299Y0105251D01*
X0331383Y0101253D02*
X0344046Y0101253D01*
X0358646Y0101253D02*
X0370916Y0101253D01*
X0371502Y0100666D02*
X0369879Y0102290D01*
X0369000Y0104411D01*
X0369000Y0106707D01*
X0369879Y0108828D01*
X0371502Y0110452D01*
X0373624Y0111331D01*
X0375920Y0111331D01*
X0378041Y0110452D01*
X0379665Y0108828D01*
X0380543Y0106707D01*
X0380543Y0104411D01*
X0379665Y0102290D01*
X0378041Y0100666D01*
X0375920Y0099787D01*
X0373624Y0099787D01*
X0371502Y0100666D01*
X0378628Y0101253D02*
X0382727Y0101253D01*
X0383372Y0100607D02*
X0385494Y0099728D01*
X0387790Y0099728D01*
X0389911Y0100607D01*
X0391535Y0102231D01*
X0392413Y0104352D01*
X0392413Y0106648D01*
X0391535Y0108769D01*
X0389911Y0110393D01*
X0387790Y0111272D01*
X0385494Y0111272D01*
X0383372Y0110393D01*
X0381749Y0108769D01*
X0380870Y0106648D01*
X0380870Y0104352D01*
X0381749Y0102231D01*
X0383372Y0100607D01*
X0390557Y0101253D02*
X0403200Y0101253D01*
X0403200Y0105251D02*
X0392413Y0105251D01*
X0391054Y0109250D02*
X0403200Y0109250D01*
X0402964Y0113248D02*
X0399128Y0113248D01*
X0395849Y0113248D02*
X0358646Y0113248D01*
X0358646Y0109250D02*
X0370300Y0109250D01*
X0369000Y0105251D02*
X0358646Y0105251D01*
X0358646Y0097254D02*
X0403200Y0097254D01*
X0403200Y0093256D02*
X0358646Y0093256D01*
X0358646Y0089257D02*
X0403200Y0089257D01*
X0403200Y0085259D02*
X0358646Y0085259D01*
X0358646Y0081260D02*
X0403200Y0081260D01*
X0403200Y0077262D02*
X0358646Y0077262D01*
X0358646Y0073263D02*
X0403200Y0073263D01*
X0403200Y0069265D02*
X0358646Y0069265D01*
X0358646Y0065266D02*
X0372477Y0065266D01*
X0373320Y0065615D02*
X0370637Y0064504D01*
X0366896Y0060763D01*
X0364843Y0058710D01*
X0363731Y0056027D01*
X0363731Y0027939D01*
X0363602Y0027627D01*
X0363602Y0024672D01*
X0364733Y0021941D01*
X0366823Y0019851D01*
X0369554Y0018720D01*
X0372509Y0018720D01*
X0375240Y0019851D01*
X0377330Y0021941D01*
X0378461Y0024672D01*
X0378461Y0027627D01*
X0378331Y0027939D01*
X0378331Y0051551D01*
X0380677Y0053897D01*
X0383515Y0051059D01*
X0383515Y0027959D01*
X0383386Y0027647D01*
X0383386Y0024692D01*
X0384517Y0021961D01*
X0386607Y0019871D01*
X0389337Y0018740D01*
X0392293Y0018740D01*
X0395023Y0019871D01*
X0397113Y0021961D01*
X0398244Y0024692D01*
X0398244Y0027647D01*
X0398115Y0027959D01*
X0398115Y0055535D01*
X0397004Y0058218D01*
X0394950Y0060271D01*
X0390777Y0064445D01*
X0388094Y0065556D01*
X0385190Y0065556D01*
X0382507Y0064445D01*
X0380736Y0062674D01*
X0378907Y0064504D01*
X0376224Y0065615D01*
X0373320Y0065615D01*
X0377066Y0065266D02*
X0384490Y0065266D01*
X0388794Y0065266D02*
X0403200Y0065266D01*
X0403200Y0061268D02*
X0393954Y0061268D01*
X0397397Y0057269D02*
X0403200Y0057269D01*
X0403200Y0053270D02*
X0398115Y0053270D01*
X0398115Y0049272D02*
X0403200Y0049272D01*
X0403200Y0045273D02*
X0398115Y0045273D01*
X0398115Y0041275D02*
X0403200Y0041275D01*
X0403200Y0037276D02*
X0398115Y0037276D01*
X0398115Y0033278D02*
X0403200Y0033278D01*
X0403200Y0029279D02*
X0398115Y0029279D01*
X0398244Y0025281D02*
X0403071Y0025281D01*
X0404880Y0021282D02*
X0396434Y0021282D01*
X0385195Y0021282D02*
X0376671Y0021282D01*
X0378461Y0025281D02*
X0383386Y0025281D01*
X0383515Y0029279D02*
X0378331Y0029279D01*
X0378331Y0033278D02*
X0383515Y0033278D01*
X0383515Y0037276D02*
X0378331Y0037276D01*
X0378331Y0041275D02*
X0383515Y0041275D01*
X0383515Y0045273D02*
X0378331Y0045273D01*
X0378331Y0049272D02*
X0383515Y0049272D01*
X0381303Y0053270D02*
X0380051Y0053270D01*
X0364246Y0057269D02*
X0358646Y0057269D01*
X0358646Y0053270D02*
X0363731Y0053270D01*
X0363731Y0049272D02*
X0358646Y0049272D01*
X0358646Y0045273D02*
X0363731Y0045273D01*
X0363731Y0041275D02*
X0358646Y0041275D01*
X0358646Y0037276D02*
X0363731Y0037276D01*
X0363731Y0033278D02*
X0358646Y0033278D01*
X0358646Y0029279D02*
X0363731Y0029279D01*
X0363602Y0025281D02*
X0358776Y0025281D01*
X0356986Y0021282D02*
X0365392Y0021282D01*
X0416119Y0021282D02*
X0424566Y0021282D01*
X0422756Y0025281D02*
X0417929Y0025281D01*
X0417800Y0029279D02*
X0422885Y0029279D01*
X0422885Y0033278D02*
X0417800Y0033278D01*
X0417800Y0037276D02*
X0422885Y0037276D01*
X0422885Y0041275D02*
X0417800Y0041275D01*
X0417800Y0045273D02*
X0422885Y0045273D01*
X0422885Y0049272D02*
X0417800Y0049272D01*
X0417800Y0053270D02*
X0422885Y0053270D01*
X0423408Y0057269D02*
X0417800Y0057269D01*
X0417800Y0061268D02*
X0426574Y0061268D01*
X0431734Y0065266D02*
X0417800Y0065266D01*
X0367400Y0061268D02*
X0358646Y0061268D01*
X0380543Y0105251D02*
X0380870Y0105251D01*
X0382229Y0109250D02*
X0379243Y0109250D01*
X0392507Y0117247D02*
X0357587Y0117247D01*
D15*
X0363512Y0119024D03*
X0397488Y0117961D03*
X0423984Y0119457D03*
X0405638Y0147173D03*
X0317803Y0137803D03*
X0304299Y0119142D03*
X0230047Y0121937D03*
X0176858Y0088157D03*
X0170283Y0081110D03*
X0163866Y0075165D03*
X0164063Y0069693D03*
X0124693Y0087055D03*
X0103197Y0101898D03*
X0088000Y0110559D03*
X0071031Y0114142D03*
X0079063Y0118315D03*
X0099535Y0118551D03*
X0105598Y0125402D03*
X0124890Y0118197D03*
X0131504Y0114811D03*
X0105402Y0133630D03*
X0060126Y0093630D03*
X0061898Y0085992D03*
X0071425Y0084811D03*
X0079063Y0084732D03*
X0081425Y0070047D03*
X0093748Y0069299D03*
X0120913Y0055874D03*
X0087055Y0048591D03*
X0070874Y0044732D03*
X0081898Y0027409D03*
X0060835Y0017094D03*
X0057606Y0068945D03*
X0243709Y0086819D03*
X0250835Y0080874D03*
X0307449Y0075126D03*
D16*
X0307488Y0110874D01*
X0309102Y0111937D01*
X0311228Y0113748D01*
X0313472Y0115480D01*
X0318748Y0136858D01*
X0317803Y0137803D01*
X0277173Y0137803D01*
X0276150Y0138827D01*
X0276150Y0146780D01*
X0276346Y0146976D01*
X0269417Y0146976D01*
X0267606Y0148787D01*
X0267606Y0154732D01*
X0265402Y0156937D01*
X0255402Y0156937D02*
X0255402Y0150402D01*
X0250008Y0145441D01*
X0250283Y0081425D01*
X0250835Y0080874D01*
X0243709Y0086819D02*
X0244299Y0088669D01*
X0244063Y0145559D01*
X0243394Y0148866D01*
X0245402Y0156937D01*
X0255402Y0156937D02*
X0255402Y0152173D01*
X0275402Y0156937D02*
X0283197Y0149142D01*
X0283197Y0145717D01*
X0284417Y0144496D01*
X0403197Y0144496D01*
X0397488Y0138787D01*
X0397488Y0117961D01*
X0403197Y0144496D02*
X0405638Y0146937D01*
X0405638Y0147173D01*
X0177055Y0111858D02*
X0176858Y0088157D01*
X0170244Y0082528D02*
X0170283Y0081110D01*
X0170244Y0082528D02*
X0170244Y0107961D01*
X0169732Y0108472D01*
X0169063Y0108472D01*
X0168748Y0108787D01*
X0156071Y0108787D01*
X0155835Y0109024D01*
X0127134Y0109024D01*
X0124890Y0111268D01*
X0124890Y0118197D01*
X0131504Y0114811D02*
X0155480Y0114811D01*
X0155598Y0114693D01*
X0155677Y0114772D01*
X0174142Y0114772D01*
X0177055Y0111858D01*
X0164142Y0101071D02*
X0162764Y0102449D01*
X0156898Y0102449D01*
X0156780Y0102567D01*
X0123866Y0102567D01*
X0120323Y0106110D01*
X0120205Y0106110D01*
X0108709Y0117606D01*
X0107291Y0117606D01*
X0106346Y0118551D01*
X0099535Y0118551D01*
X0104535Y0124220D02*
X0104535Y0124339D01*
X0105598Y0125402D01*
X0104535Y0124220D02*
X0063394Y0124220D01*
X0061346Y0122173D01*
X0061346Y0114142D01*
X0059772Y0112567D01*
X0059772Y0111071D01*
X0055441Y0106740D01*
X0055441Y0105795D01*
X0053000Y0103354D01*
X0043984Y0103354D01*
X0039969Y0099339D01*
X0032843Y0099339D01*
X0047685Y0093630D02*
X0060126Y0093630D01*
X0047685Y0093630D02*
X0047685Y0082449D01*
X0032606Y0067370D01*
X0043236Y0058000D02*
X0046504Y0061268D01*
X0046504Y0070441D01*
X0061898Y0085835D01*
X0061898Y0085992D01*
X0071031Y0085205D02*
X0071425Y0084811D01*
X0071031Y0085205D02*
X0071031Y0114142D01*
X0079063Y0118315D02*
X0079063Y0084732D01*
X0065953Y0077291D02*
X0095047Y0077291D01*
X0103157Y0085402D01*
X0103197Y0101898D01*
X0107646Y0109142D02*
X0107764Y0109142D01*
X0121622Y0095283D01*
X0157252Y0095283D01*
X0157488Y0095520D01*
X0157488Y0072882D01*
X0160756Y0069614D01*
X0163866Y0069614D01*
X0164063Y0069693D01*
X0163866Y0075165D02*
X0164299Y0077331D01*
X0164142Y0101071D01*
X0125362Y0086386D02*
X0124850Y0062134D01*
X0123984Y0059142D01*
X0120913Y0055874D01*
X0092488Y0048000D01*
X0077764Y0033276D01*
X0036819Y0033157D01*
X0032606Y0037370D01*
X0032606Y0047370D02*
X0054260Y0047370D01*
X0055126Y0047921D01*
X0055047Y0066386D01*
X0057606Y0068945D01*
X0065953Y0077291D01*
X0079043Y0068098D02*
X0081425Y0070047D01*
X0079043Y0068098D02*
X0079043Y0046366D01*
X0077803Y0045126D01*
X0071268Y0045126D01*
X0070874Y0044732D01*
X0087055Y0048591D02*
X0093748Y0055283D01*
X0093748Y0069299D01*
X0124693Y0087055D02*
X0125362Y0086386D01*
X0107646Y0109142D02*
X0106228Y0110559D01*
X0088000Y0110559D01*
X0056150Y0118433D02*
X0056150Y0126504D01*
X0059654Y0130008D01*
X0101780Y0130008D01*
X0105402Y0133630D01*
X0056150Y0118433D02*
X0052528Y0114811D01*
X0052528Y0112370D01*
X0049496Y0109339D01*
X0032843Y0109339D01*
X0033236Y0058000D02*
X0032606Y0057370D01*
X0033236Y0058000D02*
X0043236Y0058000D01*
X0032646Y0027409D02*
X0032606Y0027370D01*
X0032646Y0027409D02*
X0081898Y0027409D01*
D17*
X0209496Y0058354D02*
X0213827Y0054024D01*
X0213827Y0026150D01*
X0233512Y0026150D02*
X0233512Y0113079D01*
X0233118Y0113472D01*
X0292094Y0113394D02*
X0292488Y0113000D01*
X0292488Y0026150D01*
X0272803Y0026150D02*
X0272803Y0053945D01*
X0268472Y0058276D01*
X0256740Y0058354D02*
X0253197Y0054811D01*
X0253197Y0026150D01*
X0312173Y0026150D02*
X0312173Y0054732D01*
X0315717Y0058276D01*
X0327528Y0058315D02*
X0331661Y0054181D01*
X0331661Y0026150D01*
X0351346Y0026150D02*
X0351346Y0113236D01*
X0351150Y0113433D01*
X0410264Y0113374D02*
X0410500Y0113138D01*
X0410500Y0026169D01*
X0430185Y0026169D02*
X0430185Y0054555D01*
X0433886Y0058256D01*
X0390815Y0054083D02*
X0390815Y0026169D01*
X0371031Y0026150D02*
X0371031Y0054575D01*
X0374772Y0058315D01*
X0386642Y0058256D02*
X0390815Y0054083D01*
D18*
X0173020Y0031799D02*
X0173020Y0015480D01*
X0173020Y0031799D02*
X0162921Y0041898D01*
X0109654Y0041898D01*
X0093768Y0026012D01*
D19*
X0046110Y0119339D02*
X0032843Y0119339D01*
X0046110Y0119339D02*
X0048984Y0122213D01*
X0048984Y0132055D01*
X0064063Y0147646D01*
X0180380Y0147646D01*
X0180866Y0147160D01*
X0180866Y0143854D01*
X0193492Y0131228D01*
M02*
