G75*
%MOIN*%
%OFA0B0*%
%FSLAX25Y25*%
%IPPOS*%
%LPD*%
%AMOC8*
5,1,8,0,0,1.08239X$1,22.5*
%
%ADD10C,0.00800*%
%ADD11C,0.00500*%
%ADD12C,0.00891*%
%ADD13C,0.00250*%
%ADD14C,0.00984*%
%ADD15C,0.02400*%
%ADD16C,0.00400*%
%ADD17C,0.00600*%
%ADD18C,0.00200*%
D10*
X0018678Y0025270D02*
X0021480Y0028072D01*
X0021480Y0028773D01*
X0020780Y0029474D01*
X0019379Y0029474D01*
X0018678Y0028773D01*
X0018678Y0025270D02*
X0021480Y0025270D01*
X0020780Y0035270D02*
X0019379Y0035270D01*
X0018678Y0035971D01*
X0018678Y0037372D02*
X0020079Y0038072D01*
X0020780Y0038072D01*
X0021480Y0037372D01*
X0021480Y0035971D01*
X0020780Y0035270D01*
X0016876Y0035270D02*
X0014074Y0035270D01*
X0015475Y0035270D02*
X0015475Y0039474D01*
X0014074Y0038072D01*
X0018678Y0037372D02*
X0018678Y0039474D01*
X0021480Y0039474D01*
X0020780Y0045270D02*
X0019379Y0045270D01*
X0018678Y0045971D01*
X0021480Y0048773D01*
X0021480Y0045971D01*
X0020780Y0045270D01*
X0018678Y0045971D02*
X0018678Y0048773D01*
X0019379Y0049474D01*
X0020780Y0049474D01*
X0021480Y0048773D01*
X0020780Y0055270D02*
X0019379Y0055270D01*
X0018678Y0055971D01*
X0016876Y0055270D02*
X0014074Y0055270D01*
X0015475Y0055270D02*
X0015475Y0059474D01*
X0014074Y0058072D01*
X0018678Y0058773D02*
X0019379Y0059474D01*
X0020780Y0059474D01*
X0021480Y0058773D01*
X0021480Y0058072D01*
X0020780Y0057372D01*
X0021480Y0056671D01*
X0021480Y0055971D01*
X0020780Y0055270D01*
X0020780Y0057372D02*
X0020079Y0057372D01*
X0018678Y0065270D02*
X0021480Y0068072D01*
X0021480Y0068773D01*
X0020780Y0069474D01*
X0019379Y0069474D01*
X0018678Y0068773D01*
X0015475Y0069474D02*
X0015475Y0065270D01*
X0014074Y0065270D02*
X0016876Y0065270D01*
X0018678Y0065270D02*
X0021480Y0065270D01*
X0015475Y0069474D02*
X0014074Y0068072D01*
X0014013Y0087199D02*
X0012612Y0087199D01*
X0011911Y0087900D01*
X0011911Y0090702D01*
X0012612Y0091403D01*
X0014013Y0091403D01*
X0014713Y0090702D01*
X0014713Y0089301D02*
X0013312Y0089301D01*
X0014713Y0089301D02*
X0014713Y0087900D01*
X0014013Y0087199D01*
X0016515Y0087199D02*
X0016515Y0091403D01*
X0019317Y0087199D01*
X0019317Y0091403D01*
X0021119Y0091403D02*
X0023221Y0091403D01*
X0023921Y0090702D01*
X0023921Y0087900D01*
X0023221Y0087199D01*
X0021119Y0087199D01*
X0021119Y0091403D01*
X0021119Y0097199D02*
X0023921Y0101403D01*
X0021119Y0101403D02*
X0023921Y0097199D01*
X0019317Y0097199D02*
X0017916Y0098600D01*
X0018617Y0098600D02*
X0016515Y0098600D01*
X0016515Y0097199D02*
X0016515Y0101403D01*
X0018617Y0101403D01*
X0019317Y0100702D01*
X0019317Y0099301D01*
X0018617Y0098600D01*
X0017916Y0107199D02*
X0017916Y0111403D01*
X0016515Y0111403D02*
X0019317Y0111403D01*
X0021119Y0111403D02*
X0023921Y0107199D01*
X0021119Y0107199D02*
X0023921Y0111403D01*
X0022520Y0117199D02*
X0023921Y0118600D01*
X0023921Y0121403D01*
X0021119Y0121403D02*
X0021119Y0118600D01*
X0022520Y0117199D01*
X0019317Y0117900D02*
X0018617Y0117199D01*
X0017216Y0117199D01*
X0016515Y0117900D01*
X0016515Y0119301D02*
X0017916Y0120002D01*
X0018617Y0120002D01*
X0019317Y0119301D01*
X0019317Y0117900D01*
X0016515Y0119301D02*
X0016515Y0121403D01*
X0019317Y0121403D01*
X0014713Y0119301D02*
X0011911Y0119301D01*
X0013312Y0120702D02*
X0013312Y0117900D01*
X0012612Y0127199D02*
X0011911Y0127900D01*
X0012612Y0127199D02*
X0014013Y0127199D01*
X0014713Y0127900D01*
X0014713Y0128600D01*
X0014013Y0129301D01*
X0013312Y0129301D01*
X0014013Y0129301D02*
X0014713Y0130002D01*
X0014713Y0130702D01*
X0014013Y0131403D01*
X0012612Y0131403D01*
X0011911Y0130702D01*
X0010109Y0129301D02*
X0007307Y0129301D01*
X0008708Y0130702D02*
X0008708Y0127900D01*
X0016515Y0128600D02*
X0016515Y0131403D01*
X0019317Y0131403D02*
X0019317Y0128600D01*
X0017916Y0127199D01*
X0016515Y0128600D01*
X0021119Y0127900D02*
X0021819Y0127199D01*
X0023221Y0127199D01*
X0023921Y0127900D01*
X0023921Y0128600D01*
X0023221Y0129301D01*
X0022520Y0129301D01*
X0023221Y0129301D02*
X0023921Y0130002D01*
X0023921Y0130702D01*
X0023221Y0131403D01*
X0021819Y0131403D01*
X0021119Y0130702D01*
X0203591Y0119378D02*
X0262646Y0119378D01*
X0262646Y0046543D01*
X0203591Y0046543D01*
X0203591Y0119378D01*
X0213981Y0124428D02*
X0219657Y0124428D01*
X0214350Y0124772D02*
X0214350Y0130283D01*
X0213981Y0130628D02*
X0219657Y0130628D01*
X0262567Y0119299D02*
X0321622Y0119299D01*
X0321622Y0046465D01*
X0262567Y0046465D01*
X0262567Y0119299D01*
X0272800Y0124546D02*
X0278476Y0124546D01*
X0273169Y0124890D02*
X0273169Y0130402D01*
X0272800Y0130746D02*
X0278476Y0130746D01*
X0321622Y0119339D02*
X0380677Y0119339D01*
X0380677Y0046504D01*
X0321622Y0046504D01*
X0321622Y0119339D01*
X0332406Y0124506D02*
X0338082Y0124506D01*
X0332776Y0124850D02*
X0332776Y0130362D01*
X0332406Y0130706D02*
X0338082Y0130706D01*
X0380736Y0119280D02*
X0439791Y0119280D01*
X0439791Y0046445D01*
X0380736Y0046445D01*
X0380736Y0119280D01*
X0390851Y0124683D02*
X0396527Y0124683D01*
X0391220Y0125028D02*
X0391220Y0130539D01*
X0390851Y0130883D02*
X0396527Y0130883D01*
D11*
X0044648Y0013291D02*
X0044648Y0010789D01*
X0044648Y0012040D02*
X0045482Y0012040D01*
X0044648Y0013291D02*
X0046316Y0013291D01*
X0047410Y0013291D02*
X0047410Y0010789D01*
X0049078Y0010789D01*
X0050172Y0010789D02*
X0050172Y0012457D01*
X0051006Y0013291D01*
X0051840Y0012457D01*
X0051840Y0010789D01*
X0052935Y0011206D02*
X0053352Y0010789D01*
X0054186Y0010789D01*
X0054603Y0011206D01*
X0054603Y0011623D01*
X0054186Y0012040D01*
X0053352Y0012040D01*
X0052935Y0012457D01*
X0052935Y0012874D01*
X0053352Y0013291D01*
X0054186Y0013291D01*
X0054603Y0012874D01*
X0055697Y0013291D02*
X0055697Y0010789D01*
X0055697Y0012040D02*
X0057365Y0012040D01*
X0057365Y0013291D02*
X0057365Y0010789D01*
X0051840Y0012040D02*
X0050172Y0012040D01*
X0064844Y0011801D02*
X0066096Y0011801D01*
X0066513Y0012218D01*
X0066513Y0013052D01*
X0066096Y0013469D01*
X0064844Y0013469D01*
X0064844Y0010967D01*
X0065679Y0011801D02*
X0066513Y0010967D01*
X0067607Y0010967D02*
X0069275Y0010967D01*
X0070369Y0011384D02*
X0070786Y0010967D01*
X0071620Y0010967D01*
X0072037Y0011384D01*
X0072037Y0011801D01*
X0071620Y0012218D01*
X0070786Y0012218D01*
X0070369Y0012635D01*
X0070369Y0013052D01*
X0070786Y0013469D01*
X0071620Y0013469D01*
X0072037Y0013052D01*
X0073132Y0013469D02*
X0073132Y0010967D01*
X0074800Y0010967D01*
X0073966Y0012218D02*
X0073132Y0012218D01*
X0073132Y0013469D02*
X0074800Y0013469D01*
X0075894Y0013469D02*
X0077562Y0013469D01*
X0076728Y0013469D02*
X0076728Y0010967D01*
X0069275Y0013469D02*
X0067607Y0013469D01*
X0067607Y0010967D01*
X0067607Y0012218D02*
X0068441Y0012218D01*
X0083925Y0006327D02*
X0083925Y0045697D01*
X0123295Y0045697D01*
X0123295Y0006327D01*
X0083925Y0006327D01*
X0076465Y0020815D02*
X0064654Y0020815D01*
X0064654Y0036563D01*
X0076465Y0036563D01*
X0076465Y0020815D01*
X0056996Y0020815D02*
X0045185Y0020815D01*
X0045185Y0036563D01*
X0056996Y0036563D01*
X0056996Y0020815D01*
X0037219Y0020804D02*
X0036802Y0021221D01*
X0035968Y0021221D01*
X0035551Y0020804D01*
X0035551Y0020387D01*
X0035968Y0019970D01*
X0036802Y0019970D01*
X0037219Y0019553D01*
X0037219Y0019136D01*
X0036802Y0018719D01*
X0035968Y0018719D01*
X0035551Y0019136D01*
X0034457Y0018719D02*
X0034457Y0021221D01*
X0032789Y0021221D02*
X0034457Y0018719D01*
X0032789Y0018719D02*
X0032789Y0021221D01*
X0031782Y0021221D02*
X0030947Y0021221D01*
X0031364Y0021221D02*
X0031364Y0018719D01*
X0030947Y0018719D02*
X0031782Y0018719D01*
X0029853Y0019970D02*
X0029436Y0019553D01*
X0028185Y0019553D01*
X0028185Y0018719D02*
X0028185Y0021221D01*
X0029436Y0021221D01*
X0029853Y0020804D01*
X0029853Y0019970D01*
X0069618Y0051419D02*
X0069618Y0052670D01*
X0070035Y0053087D01*
X0070869Y0053087D01*
X0071286Y0052670D01*
X0071286Y0051419D01*
X0072120Y0051419D02*
X0069618Y0051419D01*
X0068354Y0051445D02*
X0060480Y0051445D01*
X0060480Y0056563D01*
X0059915Y0055869D02*
X0059915Y0054201D01*
X0058247Y0055869D01*
X0057830Y0055869D01*
X0057413Y0055452D01*
X0057413Y0054618D01*
X0057830Y0054201D01*
X0057830Y0053107D02*
X0058664Y0053107D01*
X0059081Y0052690D01*
X0059081Y0051439D01*
X0059081Y0052273D02*
X0059915Y0053107D01*
X0059915Y0051439D02*
X0057413Y0051439D01*
X0057413Y0052690D01*
X0057830Y0053107D01*
X0056248Y0051484D02*
X0056248Y0055815D01*
X0057413Y0058215D02*
X0058664Y0056964D01*
X0058664Y0058632D01*
X0059915Y0058215D02*
X0057413Y0058215D01*
X0054280Y0058965D02*
X0053492Y0059752D01*
X0052705Y0058965D01*
X0051917Y0059752D01*
X0051130Y0058965D01*
X0050343Y0059752D01*
X0047809Y0058671D02*
X0047809Y0057003D01*
X0047809Y0057837D02*
X0045307Y0057837D01*
X0046141Y0057003D01*
X0046141Y0055909D02*
X0045724Y0055909D01*
X0045307Y0055492D01*
X0045307Y0054658D01*
X0045724Y0054241D01*
X0045724Y0053146D02*
X0046558Y0053146D01*
X0046975Y0052729D01*
X0046975Y0051478D01*
X0047809Y0051478D02*
X0045307Y0051478D01*
X0045307Y0052729D01*
X0045724Y0053146D01*
X0046975Y0052312D02*
X0047809Y0053146D01*
X0047809Y0054241D02*
X0046141Y0055909D01*
X0047809Y0055909D02*
X0047809Y0054241D01*
X0048374Y0055815D02*
X0048374Y0051484D01*
X0056248Y0051484D01*
X0068354Y0051445D02*
X0068354Y0056563D01*
X0069618Y0057361D02*
X0070035Y0056944D01*
X0069618Y0057361D02*
X0069618Y0058195D01*
X0070035Y0058612D01*
X0070452Y0058612D01*
X0072120Y0056944D01*
X0072120Y0058612D01*
X0074654Y0059654D02*
X0075441Y0058866D01*
X0076228Y0059654D01*
X0077016Y0058866D01*
X0077803Y0059654D01*
X0078591Y0058866D01*
X0081705Y0058592D02*
X0081705Y0056924D01*
X0082956Y0056924D01*
X0082539Y0057758D01*
X0082539Y0058175D01*
X0082956Y0058592D01*
X0083790Y0058592D01*
X0084207Y0058175D01*
X0084207Y0057341D01*
X0083790Y0056924D01*
X0084732Y0056524D02*
X0084732Y0051406D01*
X0092606Y0051406D01*
X0092606Y0056524D01*
X0094795Y0055055D02*
X0095629Y0054221D01*
X0095212Y0053127D02*
X0094795Y0052710D01*
X0094795Y0051876D01*
X0095212Y0051459D01*
X0096880Y0051459D01*
X0097297Y0051876D01*
X0097297Y0052710D01*
X0096880Y0053127D01*
X0097297Y0054221D02*
X0097297Y0055889D01*
X0097862Y0056150D02*
X0097862Y0051425D01*
X0105736Y0051425D01*
X0105736Y0056150D01*
X0108181Y0055452D02*
X0108181Y0054618D01*
X0108598Y0054201D01*
X0108598Y0053107D02*
X0109432Y0053107D01*
X0109849Y0052690D01*
X0109849Y0051439D01*
X0109849Y0052273D02*
X0110683Y0053107D01*
X0110683Y0054201D02*
X0109015Y0055869D01*
X0108598Y0055869D01*
X0108181Y0055452D01*
X0108598Y0056964D02*
X0108181Y0057381D01*
X0108181Y0058215D01*
X0108598Y0058632D01*
X0109015Y0058632D01*
X0109432Y0058215D01*
X0109849Y0058632D01*
X0110266Y0058632D01*
X0110683Y0058215D01*
X0110683Y0057381D01*
X0110266Y0056964D01*
X0111248Y0056563D02*
X0111248Y0051445D01*
X0119122Y0051445D01*
X0119122Y0056563D01*
X0117154Y0058925D02*
X0116366Y0059713D01*
X0115579Y0058925D01*
X0114791Y0059713D01*
X0114004Y0058925D01*
X0113217Y0059713D01*
X0109432Y0058215D02*
X0109432Y0057798D01*
X0110683Y0055869D02*
X0110683Y0054201D01*
X0108598Y0053107D02*
X0108181Y0052690D01*
X0108181Y0051439D01*
X0110683Y0051439D01*
X0103374Y0058512D02*
X0100224Y0058512D01*
X0100224Y0060087D02*
X0103374Y0060087D01*
X0105736Y0062449D02*
X0105736Y0067173D01*
X0097862Y0067173D01*
X0097862Y0062449D01*
X0092606Y0062823D02*
X0092606Y0067154D01*
X0084732Y0067154D01*
X0084732Y0062823D01*
X0080559Y0062803D02*
X0080559Y0067134D01*
X0072685Y0067134D01*
X0072685Y0062803D01*
X0068354Y0062862D02*
X0068354Y0067193D01*
X0060480Y0067193D01*
X0060480Y0062862D01*
X0056248Y0062114D02*
X0056248Y0067232D01*
X0048374Y0067232D01*
X0048374Y0062114D01*
X0062449Y0059713D02*
X0063236Y0058925D01*
X0064024Y0059713D01*
X0064811Y0058925D01*
X0065598Y0059713D01*
X0066386Y0058925D01*
X0069618Y0055433D02*
X0069618Y0054599D01*
X0070035Y0054182D01*
X0069618Y0055433D02*
X0070035Y0055850D01*
X0070452Y0055850D01*
X0072120Y0054182D01*
X0072120Y0055850D01*
X0072685Y0056504D02*
X0072685Y0051386D01*
X0080559Y0051386D01*
X0080559Y0056504D01*
X0081705Y0055413D02*
X0081705Y0054579D01*
X0082122Y0054162D01*
X0082122Y0053068D02*
X0082956Y0053068D01*
X0083373Y0052651D01*
X0083373Y0051400D01*
X0083373Y0052234D02*
X0084207Y0053068D01*
X0084207Y0054162D02*
X0082539Y0055830D01*
X0082122Y0055830D01*
X0081705Y0055413D01*
X0084207Y0055830D02*
X0084207Y0054162D01*
X0082122Y0053068D02*
X0081705Y0052651D01*
X0081705Y0051400D01*
X0084207Y0051400D01*
X0094795Y0055055D02*
X0097297Y0055055D01*
X0090638Y0058886D02*
X0089850Y0059673D01*
X0089063Y0058886D01*
X0088276Y0059673D01*
X0087488Y0058886D01*
X0086701Y0059673D01*
X0072120Y0053087D02*
X0071286Y0052253D01*
X0111248Y0062862D02*
X0111248Y0067193D01*
X0119122Y0067193D01*
X0119122Y0062862D01*
X0114083Y0072567D02*
X0051091Y0072567D01*
X0037825Y0080978D02*
X0037825Y0081812D01*
X0036991Y0081812D01*
X0037825Y0080978D02*
X0037408Y0080561D01*
X0036574Y0080561D01*
X0036157Y0080978D01*
X0036157Y0082646D01*
X0036574Y0083063D01*
X0037408Y0083063D01*
X0037825Y0082646D01*
X0035063Y0082646D02*
X0035063Y0080978D01*
X0034646Y0080561D01*
X0033812Y0080561D01*
X0033395Y0080978D01*
X0033395Y0082646D01*
X0033812Y0083063D01*
X0034646Y0083063D01*
X0035063Y0082646D01*
X0032300Y0082646D02*
X0032300Y0081812D01*
X0031883Y0081395D01*
X0030632Y0081395D01*
X0030632Y0080561D02*
X0030632Y0083063D01*
X0031883Y0083063D01*
X0032300Y0082646D01*
X0031466Y0081395D02*
X0032300Y0080561D01*
X0029538Y0081812D02*
X0029121Y0081395D01*
X0027870Y0081395D01*
X0027870Y0080561D02*
X0027870Y0083063D01*
X0029121Y0083063D01*
X0029538Y0082646D01*
X0029538Y0081812D01*
X0051091Y0138315D02*
X0051091Y0167055D01*
X0114083Y0167055D01*
X0114083Y0138315D01*
X0120579Y0145181D02*
X0120996Y0144764D01*
X0122664Y0144764D01*
X0123081Y0145181D01*
X0123081Y0146015D01*
X0122664Y0146432D01*
X0123081Y0147526D02*
X0121413Y0149194D01*
X0120996Y0149194D01*
X0120579Y0148777D01*
X0120579Y0147943D01*
X0120996Y0147526D01*
X0120996Y0146432D02*
X0120579Y0146015D01*
X0120579Y0145181D01*
X0123081Y0147526D02*
X0123081Y0149194D01*
X0157787Y0148628D02*
X0159038Y0147377D01*
X0159038Y0149045D01*
X0160289Y0148628D02*
X0157787Y0148628D01*
X0158204Y0146282D02*
X0157787Y0145865D01*
X0157787Y0145031D01*
X0158204Y0144614D01*
X0159872Y0144614D01*
X0160289Y0145031D01*
X0160289Y0145865D01*
X0159872Y0146282D01*
X0205140Y0136106D02*
X0205140Y0133604D01*
X0206391Y0133604D01*
X0206808Y0134021D01*
X0206808Y0135689D01*
X0206391Y0136106D01*
X0205140Y0136106D01*
X0207902Y0134855D02*
X0209570Y0134855D01*
X0209153Y0133604D02*
X0209153Y0136106D01*
X0207902Y0134855D01*
X0231872Y0133272D02*
X0231872Y0130770D01*
X0233540Y0130770D01*
X0234634Y0130770D02*
X0236302Y0130770D01*
X0237397Y0130770D02*
X0238648Y0130770D01*
X0239065Y0131187D01*
X0239065Y0132855D01*
X0238648Y0133272D01*
X0237397Y0133272D01*
X0237397Y0130770D01*
X0235468Y0132021D02*
X0234634Y0132021D01*
X0234634Y0133272D02*
X0234634Y0130770D01*
X0240159Y0132021D02*
X0241827Y0132021D01*
X0241410Y0133272D02*
X0240159Y0132021D01*
X0241410Y0130770D02*
X0241410Y0133272D01*
X0236302Y0133272D02*
X0234634Y0133272D01*
X0253020Y0128278D02*
X0253020Y0126778D01*
X0258020Y0124778D02*
X0258020Y0121778D01*
X0254520Y0121778D01*
X0258020Y0130278D02*
X0258020Y0133278D01*
X0254520Y0133278D01*
X0263998Y0133644D02*
X0265249Y0133644D01*
X0265666Y0134061D01*
X0265666Y0135729D01*
X0265249Y0136146D01*
X0263998Y0136146D01*
X0263998Y0133644D01*
X0266760Y0134061D02*
X0267177Y0133644D01*
X0268011Y0133644D01*
X0268428Y0134061D01*
X0268428Y0134478D01*
X0268011Y0134895D01*
X0267594Y0134895D01*
X0268011Y0134895D02*
X0268428Y0135312D01*
X0268428Y0135729D01*
X0268011Y0136146D01*
X0267177Y0136146D01*
X0266760Y0135729D01*
X0289943Y0133272D02*
X0289943Y0130770D01*
X0291611Y0130770D01*
X0292705Y0130770D02*
X0294373Y0130770D01*
X0295468Y0130770D02*
X0296719Y0130770D01*
X0297136Y0131187D01*
X0297136Y0132855D01*
X0296719Y0133272D01*
X0295468Y0133272D01*
X0295468Y0130770D01*
X0293539Y0132021D02*
X0292705Y0132021D01*
X0292705Y0133272D02*
X0292705Y0130770D01*
X0298230Y0131187D02*
X0298647Y0130770D01*
X0299481Y0130770D01*
X0299898Y0131187D01*
X0299898Y0131604D01*
X0299481Y0132021D01*
X0299064Y0132021D01*
X0299481Y0132021D02*
X0299898Y0132438D01*
X0299898Y0132855D01*
X0299481Y0133272D01*
X0298647Y0133272D01*
X0298230Y0132855D01*
X0294373Y0133272D02*
X0292705Y0133272D01*
X0310697Y0128435D02*
X0310697Y0126935D01*
X0315697Y0124935D02*
X0315697Y0121935D01*
X0312197Y0121935D01*
X0315697Y0130435D02*
X0315697Y0133435D01*
X0312197Y0133435D01*
X0323604Y0133604D02*
X0324855Y0133604D01*
X0325272Y0134021D01*
X0325272Y0135689D01*
X0324855Y0136106D01*
X0323604Y0136106D01*
X0323604Y0133604D01*
X0326367Y0133604D02*
X0328035Y0135272D01*
X0328035Y0135689D01*
X0327618Y0136106D01*
X0326784Y0136106D01*
X0326367Y0135689D01*
X0326367Y0133604D02*
X0328035Y0133604D01*
X0352673Y0124366D02*
X0352673Y0121864D01*
X0354341Y0121864D01*
X0355435Y0121864D02*
X0357103Y0121864D01*
X0358198Y0121864D02*
X0359449Y0121864D01*
X0359866Y0122281D01*
X0359866Y0123949D01*
X0359449Y0124366D01*
X0358198Y0124366D01*
X0358198Y0121864D01*
X0356269Y0123115D02*
X0355435Y0123115D01*
X0355435Y0124366D02*
X0355435Y0121864D01*
X0360960Y0121864D02*
X0362628Y0123532D01*
X0362628Y0123949D01*
X0362211Y0124366D01*
X0361377Y0124366D01*
X0360960Y0123949D01*
X0360960Y0121864D02*
X0362628Y0121864D01*
X0357103Y0124366D02*
X0355435Y0124366D01*
X0370067Y0126856D02*
X0370067Y0128356D01*
X0375067Y0130356D02*
X0375067Y0133356D01*
X0371567Y0133356D01*
X0382049Y0133781D02*
X0383300Y0133781D01*
X0383717Y0134199D01*
X0383717Y0135867D01*
X0383300Y0136284D01*
X0382049Y0136284D01*
X0382049Y0133781D01*
X0384812Y0133781D02*
X0386480Y0133781D01*
X0385646Y0133781D02*
X0385646Y0136284D01*
X0384812Y0135450D01*
X0384175Y0145711D02*
X0384175Y0148213D01*
X0385426Y0148213D01*
X0385843Y0147796D01*
X0385843Y0146962D01*
X0385426Y0146545D01*
X0384175Y0146545D01*
X0385009Y0146545D02*
X0385843Y0145711D01*
X0386938Y0145711D02*
X0388606Y0147379D01*
X0388606Y0147796D01*
X0388189Y0148213D01*
X0387355Y0148213D01*
X0386938Y0147796D01*
X0386938Y0145711D02*
X0388606Y0145711D01*
X0405809Y0145691D02*
X0405809Y0148193D01*
X0407060Y0148193D01*
X0407477Y0147776D01*
X0407477Y0146942D01*
X0407060Y0146525D01*
X0405809Y0146525D01*
X0406643Y0146525D02*
X0407477Y0145691D01*
X0408571Y0145691D02*
X0410239Y0145691D01*
X0409405Y0145691D02*
X0409405Y0148193D01*
X0408571Y0147359D01*
X0431685Y0133514D02*
X0435185Y0133514D01*
X0435185Y0130514D01*
X0430185Y0128514D02*
X0430185Y0127014D01*
X0435185Y0125014D02*
X0435185Y0122014D01*
X0431685Y0122014D01*
X0421467Y0122100D02*
X0419799Y0122100D01*
X0420633Y0122100D02*
X0420633Y0124603D01*
X0419799Y0123768D01*
X0418704Y0124186D02*
X0418287Y0124603D01*
X0417036Y0124603D01*
X0417036Y0122100D01*
X0418287Y0122100D01*
X0418704Y0122517D01*
X0418704Y0124186D01*
X0415942Y0124603D02*
X0414274Y0124603D01*
X0414274Y0122100D01*
X0415942Y0122100D01*
X0415108Y0123351D02*
X0414274Y0123351D01*
X0413180Y0122100D02*
X0411512Y0122100D01*
X0411512Y0124603D01*
X0375067Y0124856D02*
X0375067Y0121856D01*
X0371567Y0121856D01*
X0351043Y0145730D02*
X0350209Y0145730D01*
X0349792Y0146147D01*
X0348698Y0145730D02*
X0347864Y0146564D01*
X0348281Y0146564D02*
X0347030Y0146564D01*
X0347030Y0145730D02*
X0347030Y0148232D01*
X0348281Y0148232D01*
X0348698Y0147815D01*
X0348698Y0146981D01*
X0348281Y0146564D01*
X0349792Y0147815D02*
X0350209Y0148232D01*
X0351043Y0148232D01*
X0351460Y0147815D01*
X0351460Y0147398D01*
X0351043Y0146981D01*
X0351460Y0146564D01*
X0351460Y0146147D01*
X0351043Y0145730D01*
X0351043Y0146981D02*
X0350626Y0146981D01*
X0330082Y0146981D02*
X0328414Y0146981D01*
X0329665Y0148232D01*
X0329665Y0145730D01*
X0327320Y0145730D02*
X0326486Y0146564D01*
X0326903Y0146564D02*
X0325652Y0146564D01*
X0325652Y0145730D02*
X0325652Y0148232D01*
X0326903Y0148232D01*
X0327320Y0147815D01*
X0327320Y0146981D01*
X0326903Y0146564D01*
X0291460Y0146187D02*
X0291043Y0145770D01*
X0290209Y0145770D01*
X0289792Y0146187D01*
X0289792Y0147021D02*
X0290626Y0147438D01*
X0291043Y0147438D01*
X0291460Y0147021D01*
X0291460Y0146187D01*
X0289792Y0147021D02*
X0289792Y0148272D01*
X0291460Y0148272D01*
X0288698Y0147855D02*
X0288698Y0147021D01*
X0288281Y0146604D01*
X0287030Y0146604D01*
X0287864Y0146604D02*
X0288698Y0145770D01*
X0287030Y0145770D02*
X0287030Y0148272D01*
X0288281Y0148272D01*
X0288698Y0147855D01*
X0270436Y0148311D02*
X0269602Y0147894D01*
X0268768Y0147060D01*
X0270019Y0147060D01*
X0270436Y0146643D01*
X0270436Y0146226D01*
X0270019Y0145809D01*
X0269185Y0145809D01*
X0268768Y0146226D01*
X0268768Y0147060D01*
X0267674Y0147060D02*
X0267257Y0146643D01*
X0266006Y0146643D01*
X0266840Y0146643D02*
X0267674Y0145809D01*
X0267674Y0147060D02*
X0267674Y0147894D01*
X0267257Y0148311D01*
X0266006Y0148311D01*
X0266006Y0145809D01*
X0233350Y0147776D02*
X0231682Y0146108D01*
X0231682Y0145691D01*
X0230587Y0145691D02*
X0229753Y0146525D01*
X0230170Y0146525D02*
X0228919Y0146525D01*
X0228919Y0145691D02*
X0228919Y0148193D01*
X0230170Y0148193D01*
X0230587Y0147776D01*
X0230587Y0146942D01*
X0230170Y0146525D01*
X0231682Y0148193D02*
X0233350Y0148193D01*
X0233350Y0147776D01*
X0211657Y0147894D02*
X0211657Y0147477D01*
X0211240Y0147060D01*
X0210406Y0147060D01*
X0209989Y0147477D01*
X0209989Y0147894D01*
X0210406Y0148311D01*
X0211240Y0148311D01*
X0211657Y0147894D01*
X0211240Y0147060D02*
X0211657Y0146643D01*
X0211657Y0146226D01*
X0211240Y0145809D01*
X0210406Y0145809D01*
X0209989Y0146226D01*
X0209989Y0146643D01*
X0210406Y0147060D01*
X0208894Y0147060D02*
X0208894Y0147894D01*
X0208477Y0148311D01*
X0207226Y0148311D01*
X0207226Y0145809D01*
X0207226Y0146643D02*
X0208477Y0146643D01*
X0208894Y0147060D01*
X0208060Y0146643D02*
X0208894Y0145809D01*
X0211848Y0161828D02*
X0211848Y0166332D01*
X0214100Y0166332D01*
X0214850Y0165581D01*
X0214850Y0164080D01*
X0214100Y0163329D01*
X0211848Y0163329D01*
X0213349Y0163329D02*
X0214850Y0161828D01*
X0216452Y0161828D02*
X0219454Y0161828D01*
X0221055Y0161828D02*
X0224058Y0161828D01*
X0225659Y0161828D02*
X0225659Y0164831D01*
X0227161Y0166332D01*
X0228662Y0164831D01*
X0228662Y0161828D01*
X0228662Y0164080D02*
X0225659Y0164080D01*
X0230263Y0165581D02*
X0231765Y0164080D01*
X0231765Y0161828D01*
X0231765Y0164080D02*
X0233266Y0165581D01*
X0233266Y0166332D01*
X0234867Y0165581D02*
X0234867Y0164831D01*
X0235618Y0164080D01*
X0237119Y0164080D01*
X0237870Y0163329D01*
X0237870Y0162579D01*
X0237119Y0161828D01*
X0235618Y0161828D01*
X0234867Y0162579D01*
X0234867Y0165581D02*
X0235618Y0166332D01*
X0237119Y0166332D01*
X0237870Y0165581D01*
X0230263Y0165581D02*
X0230263Y0166332D01*
X0221055Y0166332D02*
X0221055Y0161828D01*
X0217953Y0164080D02*
X0216452Y0164080D01*
X0216452Y0166332D02*
X0216452Y0161828D01*
X0216452Y0166332D02*
X0219454Y0166332D01*
X0240089Y0088534D02*
X0240089Y0086866D01*
X0238838Y0088117D01*
X0241341Y0088117D01*
X0239255Y0085771D02*
X0238838Y0085771D01*
X0239255Y0085771D02*
X0240089Y0084937D01*
X0241341Y0084937D01*
X0240089Y0084937D02*
X0239255Y0084103D01*
X0238838Y0084103D01*
X0239672Y0083009D02*
X0241341Y0083009D01*
X0240089Y0083009D02*
X0240089Y0081341D01*
X0239672Y0081341D02*
X0238838Y0082175D01*
X0239672Y0083009D01*
X0239672Y0081341D02*
X0241341Y0081341D01*
X0241341Y0080247D02*
X0241341Y0078578D01*
X0238838Y0078578D01*
X0238838Y0077484D02*
X0238838Y0075816D01*
X0241341Y0075816D01*
X0241341Y0077484D01*
X0240089Y0076650D02*
X0240089Y0075816D01*
X0240089Y0074722D02*
X0240507Y0074305D01*
X0240507Y0073054D01*
X0241341Y0073054D02*
X0238838Y0073054D01*
X0238838Y0074305D01*
X0239255Y0074722D01*
X0240089Y0074722D01*
X0240507Y0073888D02*
X0241341Y0074722D01*
X0297815Y0074226D02*
X0298232Y0074643D01*
X0299066Y0074643D01*
X0299483Y0074226D01*
X0299483Y0072975D01*
X0300317Y0072975D02*
X0297815Y0072975D01*
X0297815Y0074226D01*
X0297815Y0075737D02*
X0300317Y0075737D01*
X0300317Y0077405D01*
X0300317Y0078500D02*
X0297815Y0078500D01*
X0297815Y0077405D02*
X0297815Y0075737D01*
X0299066Y0075737D02*
X0299066Y0076571D01*
X0300317Y0074643D02*
X0299483Y0073809D01*
X0300317Y0078500D02*
X0300317Y0080168D01*
X0300317Y0081262D02*
X0298649Y0081262D01*
X0297815Y0082096D01*
X0298649Y0082930D01*
X0300317Y0082930D01*
X0299066Y0082930D02*
X0299066Y0081262D01*
X0298232Y0084024D02*
X0299066Y0084859D01*
X0300317Y0084859D01*
X0299066Y0084859D02*
X0298232Y0085693D01*
X0297815Y0085693D01*
X0298232Y0086787D02*
X0297815Y0087204D01*
X0297815Y0088038D01*
X0298232Y0088455D01*
X0298649Y0088455D01*
X0299066Y0088038D01*
X0299483Y0088455D01*
X0299900Y0088455D01*
X0300317Y0088038D01*
X0300317Y0087204D01*
X0299900Y0086787D01*
X0299066Y0087621D02*
X0299066Y0088038D01*
X0298232Y0084024D02*
X0297815Y0084024D01*
X0356870Y0084064D02*
X0357287Y0084064D01*
X0358121Y0084898D01*
X0359372Y0084898D01*
X0358121Y0084898D02*
X0357287Y0085732D01*
X0356870Y0085732D01*
X0357287Y0086826D02*
X0356870Y0087243D01*
X0356870Y0088077D01*
X0357287Y0088494D01*
X0357704Y0088494D01*
X0359372Y0086826D01*
X0359372Y0088494D01*
X0359372Y0082970D02*
X0357704Y0082970D01*
X0356870Y0082136D01*
X0357704Y0081301D01*
X0359372Y0081301D01*
X0359372Y0080207D02*
X0359372Y0078539D01*
X0356870Y0078539D01*
X0356870Y0077445D02*
X0356870Y0075777D01*
X0359372Y0075777D01*
X0359372Y0077445D01*
X0358121Y0076611D02*
X0358121Y0075777D01*
X0358121Y0074683D02*
X0358538Y0074265D01*
X0358538Y0073014D01*
X0359372Y0073014D02*
X0356870Y0073014D01*
X0356870Y0074265D01*
X0357287Y0074683D01*
X0358121Y0074683D01*
X0358538Y0073848D02*
X0359372Y0074683D01*
X0358121Y0081301D02*
X0358121Y0082970D01*
X0415984Y0082076D02*
X0416818Y0081242D01*
X0418486Y0081242D01*
X0418486Y0080148D02*
X0418486Y0078480D01*
X0415984Y0078480D01*
X0415984Y0077386D02*
X0415984Y0075718D01*
X0418486Y0075718D01*
X0418486Y0077386D01*
X0417235Y0076552D02*
X0417235Y0075718D01*
X0417235Y0074623D02*
X0417652Y0074206D01*
X0417652Y0072955D01*
X0418486Y0072955D02*
X0415984Y0072955D01*
X0415984Y0074206D01*
X0416401Y0074623D01*
X0417235Y0074623D01*
X0417652Y0073789D02*
X0418486Y0074623D01*
X0417235Y0081242D02*
X0417235Y0082911D01*
X0416818Y0082911D02*
X0418486Y0082911D01*
X0416818Y0082911D02*
X0415984Y0082076D01*
X0415984Y0084005D02*
X0416401Y0084005D01*
X0417235Y0084839D01*
X0418486Y0084839D01*
X0417235Y0084839D02*
X0416401Y0085673D01*
X0415984Y0085673D01*
X0416818Y0086767D02*
X0415984Y0087601D01*
X0418486Y0087601D01*
X0418486Y0086767D02*
X0418486Y0088435D01*
X0442860Y0079069D02*
X0443610Y0079069D01*
X0445112Y0079069D02*
X0448865Y0079069D01*
X0449615Y0078319D01*
X0449615Y0077568D01*
X0448114Y0075967D02*
X0445862Y0075967D01*
X0445112Y0075216D01*
X0445112Y0073715D01*
X0446613Y0073715D02*
X0446613Y0075967D01*
X0448114Y0075967D02*
X0448114Y0073715D01*
X0447364Y0072964D01*
X0446613Y0073715D01*
X0448114Y0071396D02*
X0448114Y0069895D01*
X0448114Y0070646D02*
X0443610Y0070646D01*
X0443610Y0069895D01*
X0445112Y0068294D02*
X0448114Y0068294D01*
X0445862Y0068294D02*
X0445862Y0065291D01*
X0445112Y0065291D02*
X0443610Y0066792D01*
X0445112Y0068294D01*
X0445112Y0065291D02*
X0448114Y0065291D01*
X0452612Y0064891D02*
X0452612Y0066392D01*
X0453362Y0067143D01*
X0455614Y0067143D01*
X0455614Y0064891D01*
X0454864Y0064140D01*
X0454113Y0064891D01*
X0454113Y0067143D01*
X0454113Y0068744D02*
X0452612Y0070245D01*
X0452612Y0070996D01*
X0453362Y0072581D02*
X0452612Y0073331D01*
X0452612Y0075583D01*
X0451110Y0075583D02*
X0455614Y0075583D01*
X0455614Y0073331D01*
X0454864Y0072581D01*
X0453362Y0072581D01*
X0452612Y0068744D02*
X0455614Y0068744D01*
X0455614Y0062539D02*
X0453362Y0062539D01*
X0452612Y0061788D01*
X0452612Y0059536D01*
X0455614Y0059536D01*
X0455614Y0057985D02*
X0455614Y0057234D01*
X0454864Y0057234D01*
X0454864Y0057985D01*
X0455614Y0057985D01*
X0454864Y0055633D02*
X0452612Y0055633D01*
X0454864Y0055633D02*
X0455614Y0054882D01*
X0454864Y0054132D01*
X0455614Y0053381D01*
X0454864Y0052630D01*
X0452612Y0052630D01*
X0452612Y0051029D02*
X0454864Y0051029D01*
X0455614Y0050278D01*
X0454864Y0049528D01*
X0455614Y0048777D01*
X0454864Y0048026D01*
X0452612Y0048026D01*
X0452612Y0046425D02*
X0454864Y0046425D01*
X0455614Y0045674D01*
X0454864Y0044924D01*
X0455614Y0044173D01*
X0454864Y0043422D01*
X0452612Y0043422D01*
X0448114Y0043789D02*
X0448114Y0046041D01*
X0443610Y0046041D01*
X0445112Y0046041D02*
X0445112Y0043789D01*
X0445862Y0043039D01*
X0447364Y0043039D01*
X0448114Y0043789D01*
X0446613Y0041437D02*
X0446613Y0038435D01*
X0447364Y0038435D02*
X0445862Y0038435D01*
X0445112Y0039185D01*
X0445112Y0040687D01*
X0445862Y0041437D01*
X0446613Y0041437D01*
X0448114Y0040687D02*
X0448114Y0039185D01*
X0447364Y0038435D01*
X0446613Y0036833D02*
X0443610Y0036833D01*
X0443610Y0033831D02*
X0446613Y0033831D01*
X0448114Y0035332D01*
X0446613Y0036833D01*
X0440028Y0045854D02*
X0440028Y0006484D01*
X0380972Y0006484D01*
X0380972Y0045854D01*
X0440028Y0045854D01*
X0445112Y0047643D02*
X0448114Y0047643D01*
X0446613Y0047643D02*
X0445112Y0049144D01*
X0445112Y0049895D01*
X0445112Y0052230D02*
X0445112Y0053731D01*
X0445862Y0054482D01*
X0448114Y0054482D01*
X0448114Y0052230D01*
X0447364Y0051479D01*
X0446613Y0052230D01*
X0446613Y0054482D01*
X0448114Y0056083D02*
X0445112Y0056083D01*
X0445112Y0058335D01*
X0445862Y0059086D01*
X0448114Y0059086D01*
X0453362Y0077185D02*
X0452612Y0077935D01*
X0452612Y0079436D01*
X0453362Y0080187D01*
X0454113Y0080187D01*
X0454113Y0077185D01*
X0454864Y0077185D02*
X0453362Y0077185D01*
X0454864Y0077185D02*
X0455614Y0077935D01*
X0455614Y0079436D01*
X0448114Y0080637D02*
X0448114Y0082889D01*
X0447364Y0083640D01*
X0445862Y0083640D01*
X0445112Y0082889D01*
X0445112Y0080637D01*
X0443610Y0080637D02*
X0448114Y0080637D01*
X0452612Y0081788D02*
X0455614Y0083290D01*
X0452612Y0084791D01*
X0454864Y0086392D02*
X0454864Y0087143D01*
X0455614Y0087143D01*
X0455614Y0086392D01*
X0454864Y0086392D01*
X0448114Y0085992D02*
X0448114Y0087493D01*
X0448114Y0085992D02*
X0447364Y0085241D01*
X0445862Y0085241D01*
X0445112Y0085992D01*
X0445112Y0087493D01*
X0445862Y0088244D01*
X0446613Y0088244D01*
X0446613Y0085241D01*
X0447364Y0089845D02*
X0448114Y0090596D01*
X0448114Y0092848D01*
X0448865Y0092848D02*
X0445112Y0092848D01*
X0445112Y0090596D01*
X0445862Y0089845D01*
X0447364Y0089845D01*
X0449615Y0091347D02*
X0449615Y0092097D01*
X0448865Y0092848D01*
X0447364Y0094449D02*
X0448114Y0095200D01*
X0448114Y0096701D01*
X0447364Y0097452D01*
X0445862Y0097452D01*
X0445112Y0096701D01*
X0445112Y0095200D01*
X0445862Y0094449D01*
X0447364Y0094449D01*
X0445112Y0099053D02*
X0448114Y0100554D01*
X0445112Y0102056D01*
X0445112Y0103657D02*
X0445112Y0104408D01*
X0448114Y0104408D01*
X0448114Y0105158D02*
X0448114Y0103657D01*
X0443610Y0104408D02*
X0442860Y0104408D01*
X0445862Y0106726D02*
X0447364Y0106726D01*
X0448114Y0107477D01*
X0448114Y0109729D01*
X0445112Y0109729D02*
X0445112Y0107477D01*
X0445862Y0106726D01*
X0452612Y0100137D02*
X0452612Y0097886D01*
X0453362Y0097135D01*
X0454864Y0097135D01*
X0455614Y0097886D01*
X0455614Y0100137D01*
X0456365Y0100137D02*
X0452612Y0100137D01*
X0456365Y0100137D02*
X0457115Y0099387D01*
X0457115Y0098636D01*
X0452612Y0095550D02*
X0452612Y0094800D01*
X0454113Y0093298D01*
X0455614Y0093298D02*
X0452612Y0093298D01*
X0453362Y0091697D02*
X0452612Y0090946D01*
X0452612Y0089445D01*
X0453362Y0088694D01*
X0454864Y0088694D01*
X0455614Y0089445D01*
X0455614Y0090946D01*
X0454864Y0091697D01*
X0453362Y0091697D01*
X0380874Y0045835D02*
X0380874Y0006465D01*
X0321819Y0006465D01*
X0321819Y0045835D01*
X0380874Y0045835D01*
X0322016Y0045835D02*
X0322016Y0006465D01*
X0262961Y0006465D01*
X0262961Y0045835D01*
X0322016Y0045835D01*
X0263039Y0045835D02*
X0263039Y0006465D01*
X0203984Y0006465D01*
X0203984Y0045835D01*
X0263039Y0045835D01*
D12*
X0272849Y0131854D03*
X0214030Y0131735D03*
X0332455Y0131814D03*
X0390900Y0131991D03*
D13*
X0414791Y0127803D02*
X0415480Y0128492D01*
X0416071Y0127902D01*
X0415382Y0127213D01*
X0414791Y0127803D01*
X0357272Y0127705D02*
X0356583Y0127016D01*
X0355992Y0127606D01*
X0356681Y0128295D01*
X0357272Y0127705D01*
X0297272Y0127744D02*
X0296583Y0127055D01*
X0295992Y0127646D01*
X0296681Y0128335D01*
X0297272Y0127744D01*
X0239201Y0127626D02*
X0238610Y0128217D01*
X0237921Y0127528D01*
X0238512Y0126937D01*
X0239201Y0127626D01*
D14*
X0239594Y0125953D03*
X0297665Y0126071D03*
X0357665Y0126031D03*
X0416465Y0126228D03*
D15*
X0105028Y0163906D02*
X0089280Y0163906D01*
X0089280Y0150126D01*
X0084949Y0150126D01*
X0084949Y0163906D01*
X0080618Y0163906D01*
X0080618Y0149732D01*
X0075894Y0149732D01*
X0075894Y0163906D01*
X0071169Y0163906D01*
X0071169Y0149732D01*
X0067232Y0149732D01*
X0067232Y0164299D01*
X0063689Y0164299D01*
X0063689Y0145008D01*
X0063689Y0144614D02*
X0063689Y0142252D01*
X0089280Y0142252D01*
D16*
X0095228Y0128365D02*
X0095228Y0123161D01*
X0093493Y0123161D02*
X0096963Y0123161D01*
X0098649Y0123161D02*
X0102119Y0126630D01*
X0102119Y0127498D01*
X0101252Y0128365D01*
X0099517Y0128365D01*
X0098649Y0127498D01*
X0095228Y0128365D02*
X0093493Y0126630D01*
X0098649Y0123161D02*
X0102119Y0123161D01*
X0086650Y0125763D02*
X0083180Y0125763D01*
X0076337Y0125763D02*
X0076337Y0127498D01*
X0075470Y0128365D01*
X0072867Y0128365D01*
X0072867Y0123161D01*
X0072867Y0124895D02*
X0075470Y0124895D01*
X0076337Y0125763D01*
X0071181Y0124895D02*
X0071181Y0124028D01*
X0070313Y0123161D01*
X0068578Y0123161D01*
X0067711Y0124028D01*
X0066024Y0123161D02*
X0062555Y0123161D01*
X0062555Y0128365D01*
X0066024Y0128365D01*
X0067711Y0127498D02*
X0068578Y0128365D01*
X0070313Y0128365D01*
X0071181Y0127498D01*
X0070313Y0125763D02*
X0068578Y0125763D01*
X0067711Y0126630D01*
X0067711Y0127498D01*
X0070313Y0125763D02*
X0071181Y0124895D01*
X0064289Y0125763D02*
X0062555Y0125763D01*
X0132977Y0035039D02*
X0132977Y0031970D01*
X0132977Y0033505D02*
X0128373Y0033505D01*
X0129908Y0031970D01*
X0129141Y0030435D02*
X0130675Y0030435D01*
X0131443Y0029668D01*
X0131443Y0027366D01*
X0132977Y0027366D02*
X0128373Y0027366D01*
X0128373Y0029668D01*
X0129141Y0030435D01*
X0132977Y0025831D02*
X0132977Y0022762D01*
X0128373Y0022762D01*
X0128373Y0021228D02*
X0131443Y0018158D01*
X0130675Y0018926D02*
X0132977Y0021228D01*
X0132977Y0018158D02*
X0128373Y0018158D01*
X0128373Y0016624D02*
X0132977Y0016624D01*
X0130675Y0016624D02*
X0130675Y0013554D01*
X0132977Y0013554D02*
X0128373Y0013554D01*
D17*
X0037606Y0024870D02*
X0035106Y0022370D01*
X0030106Y0022370D01*
X0027606Y0024870D01*
X0027606Y0029870D01*
X0030106Y0032370D01*
X0027606Y0034870D01*
X0027606Y0039870D01*
X0030106Y0042370D01*
X0027606Y0044870D01*
X0027606Y0049870D01*
X0030106Y0052370D01*
X0027606Y0054870D01*
X0027606Y0059870D01*
X0030106Y0062370D01*
X0027606Y0064870D01*
X0027606Y0069870D01*
X0030106Y0072370D01*
X0035106Y0072370D01*
X0037606Y0069870D01*
X0037606Y0064870D01*
X0035106Y0062370D01*
X0037606Y0059870D01*
X0037606Y0054870D01*
X0035106Y0052370D01*
X0030106Y0052370D01*
X0035106Y0052370D02*
X0037606Y0049870D01*
X0037606Y0044870D01*
X0035106Y0042370D01*
X0037606Y0039870D01*
X0037606Y0034870D01*
X0035106Y0032370D01*
X0037606Y0029870D01*
X0037606Y0024870D01*
X0035106Y0032370D02*
X0030106Y0032370D01*
X0030106Y0042370D02*
X0035106Y0042370D01*
X0035106Y0062370D02*
X0030106Y0062370D01*
X0030343Y0084339D02*
X0027843Y0086839D01*
X0027843Y0091839D01*
X0030343Y0094339D01*
X0027843Y0096839D01*
X0027843Y0101839D01*
X0030343Y0104339D01*
X0027843Y0106839D01*
X0027843Y0111839D01*
X0030343Y0114339D01*
X0027843Y0116839D01*
X0027843Y0121839D01*
X0030343Y0124339D01*
X0027843Y0126839D01*
X0027843Y0131839D01*
X0030343Y0134339D01*
X0035343Y0134339D01*
X0037843Y0131839D01*
X0037843Y0126839D01*
X0035343Y0124339D01*
X0037843Y0121839D01*
X0037843Y0116839D01*
X0035343Y0114339D01*
X0030343Y0114339D01*
X0035343Y0114339D02*
X0037843Y0111839D01*
X0037843Y0106839D01*
X0035343Y0104339D01*
X0037843Y0101839D01*
X0037843Y0096839D01*
X0035343Y0094339D01*
X0037843Y0091839D01*
X0037843Y0086839D01*
X0035343Y0084339D01*
X0030343Y0084339D01*
X0030343Y0094339D02*
X0035343Y0094339D01*
X0035343Y0104339D02*
X0030343Y0104339D01*
X0030343Y0124339D02*
X0035343Y0124339D01*
X0141475Y0145274D02*
X0152155Y0145274D01*
X0152155Y0149246D01*
X0141443Y0150589D02*
X0141443Y0152002D01*
X0141443Y0156494D02*
X0141443Y0157907D01*
X0152155Y0158998D02*
X0152155Y0163167D01*
X0141475Y0163167D01*
X0240402Y0159437D02*
X0240402Y0154437D01*
X0242902Y0151937D01*
X0247902Y0151937D01*
X0250402Y0154437D01*
X0252902Y0151937D01*
X0257902Y0151937D01*
X0260402Y0154437D01*
X0260402Y0159437D01*
X0257902Y0161937D01*
X0252902Y0161937D01*
X0250402Y0159437D01*
X0250402Y0154437D01*
X0250402Y0159437D02*
X0247902Y0161937D01*
X0242902Y0161937D01*
X0240402Y0159437D01*
X0260402Y0159437D02*
X0262902Y0161937D01*
X0267902Y0161937D01*
X0270402Y0159437D01*
X0272902Y0161937D01*
X0277902Y0161937D01*
X0280402Y0159437D01*
X0280402Y0154437D01*
X0277902Y0151937D01*
X0272902Y0151937D01*
X0270402Y0154437D01*
X0267902Y0151937D01*
X0262902Y0151937D01*
X0260402Y0154437D01*
X0270402Y0154437D02*
X0270402Y0159437D01*
D18*
X0045714Y0145233D02*
X0045714Y0144766D01*
X0043845Y0144766D01*
X0043845Y0144299D02*
X0043845Y0145233D01*
X0044312Y0145701D01*
X0045247Y0145701D01*
X0045714Y0145233D01*
X0045247Y0143832D02*
X0044312Y0143832D01*
X0043845Y0144299D01*
X0042951Y0143832D02*
X0041550Y0143832D01*
X0041083Y0144299D01*
X0041083Y0145233D01*
X0041550Y0145701D01*
X0042951Y0145701D01*
X0040182Y0145701D02*
X0039715Y0145701D01*
X0038781Y0144766D01*
X0038781Y0143832D02*
X0038781Y0145701D01*
X0037887Y0145701D02*
X0037887Y0143832D01*
X0036486Y0143832D01*
X0036019Y0144299D01*
X0036019Y0145701D01*
X0035125Y0145233D02*
X0034658Y0145701D01*
X0033723Y0145701D01*
X0033256Y0145233D01*
X0033256Y0144299D01*
X0033723Y0143832D01*
X0034658Y0143832D01*
X0035125Y0144299D01*
X0035125Y0145233D01*
X0032362Y0145701D02*
X0030961Y0145701D01*
X0030494Y0145233D01*
X0030961Y0144766D01*
X0031895Y0144766D01*
X0032362Y0144299D01*
X0031895Y0143832D01*
X0030494Y0143832D01*
X0031902Y0142135D02*
X0031902Y0139332D01*
X0030501Y0139332D01*
X0030034Y0139799D01*
X0030034Y0140733D01*
X0030501Y0141201D01*
X0031902Y0141201D01*
X0032796Y0141201D02*
X0032796Y0139799D01*
X0033263Y0139332D01*
X0033730Y0139799D01*
X0034197Y0139332D01*
X0034664Y0139799D01*
X0034664Y0141201D01*
X0036025Y0141201D02*
X0036960Y0141201D01*
X0037427Y0140733D01*
X0037427Y0139332D01*
X0036025Y0139332D01*
X0035558Y0139799D01*
X0036025Y0140266D01*
X0037427Y0140266D01*
X0038321Y0140266D02*
X0039255Y0141201D01*
X0039722Y0141201D01*
X0040623Y0140733D02*
X0041090Y0141201D01*
X0042024Y0141201D01*
X0042491Y0140733D01*
X0042491Y0140266D01*
X0040623Y0140266D01*
X0040623Y0139799D02*
X0040623Y0140733D01*
X0040623Y0139799D02*
X0041090Y0139332D01*
X0042024Y0139332D01*
X0038321Y0139332D02*
X0038321Y0141201D01*
X0029133Y0141201D02*
X0028666Y0141201D01*
X0027732Y0140266D01*
X0026838Y0140266D02*
X0025436Y0140266D01*
X0024969Y0139799D01*
X0025436Y0139332D01*
X0026838Y0139332D01*
X0026838Y0140733D01*
X0026371Y0141201D01*
X0025436Y0141201D01*
X0024075Y0140733D02*
X0024075Y0139332D01*
X0024075Y0140733D02*
X0023608Y0141201D01*
X0022674Y0141201D01*
X0022207Y0140733D01*
X0022207Y0139332D02*
X0022207Y0142135D01*
X0022674Y0143832D02*
X0022207Y0144299D01*
X0022207Y0145233D01*
X0022674Y0145701D01*
X0023608Y0145701D01*
X0024075Y0145233D01*
X0024075Y0144766D01*
X0022207Y0144766D01*
X0021313Y0144299D02*
X0020846Y0143832D01*
X0019445Y0143832D01*
X0019445Y0142898D02*
X0019445Y0145701D01*
X0020846Y0145701D01*
X0021313Y0145233D01*
X0021313Y0144299D01*
X0022674Y0143832D02*
X0023608Y0143832D01*
X0024969Y0143832D02*
X0024969Y0145701D01*
X0026371Y0145701D01*
X0026838Y0145233D01*
X0026838Y0143832D01*
X0027732Y0141201D02*
X0027732Y0139332D01*
X0018551Y0144299D02*
X0018551Y0145233D01*
X0018084Y0145701D01*
X0017149Y0145701D01*
X0016682Y0145233D01*
X0016682Y0144299D01*
X0017149Y0143832D01*
X0018084Y0143832D01*
X0018551Y0144299D01*
X0027908Y0149032D02*
X0028308Y0148582D01*
X0028658Y0148232D01*
X0029108Y0147832D01*
X0029458Y0147532D01*
X0031508Y0148932D01*
X0032658Y0148332D01*
X0034058Y0152332D01*
X0033561Y0152581D01*
X0033128Y0152930D01*
X0032781Y0153364D01*
X0032534Y0153862D01*
X0032400Y0154402D01*
X0032385Y0154958D01*
X0032488Y0155504D01*
X0032707Y0156015D01*
X0033029Y0156468D01*
X0033441Y0156841D01*
X0033924Y0157117D01*
X0034454Y0157283D01*
X0035008Y0157332D01*
X0035544Y0157267D01*
X0036055Y0157093D01*
X0036519Y0156819D01*
X0036919Y0156456D01*
X0037235Y0156019D01*
X0037456Y0155526D01*
X0037572Y0154999D01*
X0037578Y0154460D01*
X0037474Y0153930D01*
X0037264Y0153433D01*
X0036957Y0152989D01*
X0036566Y0152617D01*
X0036108Y0152332D01*
X0037658Y0148432D01*
X0038258Y0148682D01*
X0038858Y0149082D01*
X0040858Y0147682D01*
X0041258Y0148032D01*
X0041608Y0148382D01*
X0042008Y0148832D01*
X0042358Y0149282D01*
X0040908Y0151382D01*
X0041258Y0151982D01*
X0041458Y0152582D01*
X0041658Y0153382D01*
X0044108Y0153832D01*
X0044108Y0154982D01*
X0044058Y0155532D01*
X0044008Y0156032D01*
X0041558Y0156482D01*
X0041358Y0157132D01*
X0041108Y0157682D01*
X0040758Y0158282D01*
X0040708Y0158382D01*
X0042108Y0160332D01*
X0041708Y0160832D01*
X0041208Y0161332D01*
X0040808Y0161682D01*
X0040458Y0161932D01*
X0038408Y0160482D01*
X0037958Y0160732D01*
X0037508Y0160932D01*
X0037058Y0161132D01*
X0036608Y0161232D01*
X0036158Y0163682D01*
X0035558Y0163732D01*
X0034408Y0163732D01*
X0033908Y0163682D01*
X0033508Y0161282D01*
X0032758Y0161032D01*
X0032258Y0160832D01*
X0031558Y0160432D01*
X0029558Y0161882D01*
X0029108Y0161532D01*
X0028608Y0161032D01*
X0028208Y0160582D01*
X0027958Y0160332D01*
X0029358Y0158282D01*
X0029058Y0157782D01*
X0028758Y0157132D01*
X0028608Y0156582D01*
X0028458Y0156232D01*
X0026008Y0155832D01*
X0026008Y0153632D01*
X0028458Y0153232D01*
X0028658Y0152532D01*
X0028808Y0152032D01*
X0029008Y0151632D01*
X0029358Y0151032D01*
X0027908Y0149032D01*
X0027977Y0148954D02*
X0032875Y0148954D01*
X0032806Y0148755D02*
X0031847Y0148755D01*
X0032227Y0148557D02*
X0032737Y0148557D01*
X0032667Y0148358D02*
X0032608Y0148358D01*
X0032945Y0149152D02*
X0027995Y0149152D01*
X0028139Y0149351D02*
X0033014Y0149351D01*
X0033084Y0149550D02*
X0028283Y0149550D01*
X0028427Y0149748D02*
X0033153Y0149748D01*
X0033223Y0149947D02*
X0028571Y0149947D01*
X0028715Y0150145D02*
X0033292Y0150145D01*
X0033362Y0150344D02*
X0028859Y0150344D01*
X0029002Y0150542D02*
X0033431Y0150542D01*
X0033501Y0150741D02*
X0029146Y0150741D01*
X0029290Y0150939D02*
X0033570Y0150939D01*
X0033640Y0151138D02*
X0029296Y0151138D01*
X0029181Y0151336D02*
X0033709Y0151336D01*
X0033779Y0151535D02*
X0029065Y0151535D01*
X0028957Y0151733D02*
X0033848Y0151733D01*
X0033918Y0151932D02*
X0028858Y0151932D01*
X0028779Y0152130D02*
X0033987Y0152130D01*
X0034057Y0152329D02*
X0028719Y0152329D01*
X0028659Y0152527D02*
X0033668Y0152527D01*
X0033382Y0152726D02*
X0028603Y0152726D01*
X0028546Y0152924D02*
X0033136Y0152924D01*
X0032974Y0153123D02*
X0028489Y0153123D01*
X0027913Y0153321D02*
X0032815Y0153321D01*
X0032704Y0153520D02*
X0026697Y0153520D01*
X0026008Y0153718D02*
X0032606Y0153718D01*
X0032521Y0153917D02*
X0026008Y0153917D01*
X0026008Y0154115D02*
X0032471Y0154115D01*
X0032422Y0154314D02*
X0026008Y0154314D01*
X0026008Y0154512D02*
X0032397Y0154512D01*
X0032392Y0154711D02*
X0026008Y0154711D01*
X0026008Y0154909D02*
X0032386Y0154909D01*
X0032413Y0155108D02*
X0026008Y0155108D01*
X0026008Y0155306D02*
X0032451Y0155306D01*
X0032489Y0155505D02*
X0026008Y0155505D01*
X0026008Y0155703D02*
X0032574Y0155703D01*
X0032658Y0155902D02*
X0026434Y0155902D01*
X0027650Y0156100D02*
X0032768Y0156100D01*
X0032909Y0156299D02*
X0028486Y0156299D01*
X0028572Y0156497D02*
X0033062Y0156497D01*
X0033282Y0156696D02*
X0028639Y0156696D01*
X0028693Y0156894D02*
X0033536Y0156894D01*
X0033882Y0157093D02*
X0028747Y0157093D01*
X0028831Y0157291D02*
X0034547Y0157291D01*
X0035340Y0157291D02*
X0041286Y0157291D01*
X0041370Y0157093D02*
X0036054Y0157093D01*
X0036391Y0156894D02*
X0041431Y0156894D01*
X0041492Y0156696D02*
X0036654Y0156696D01*
X0036873Y0156497D02*
X0041553Y0156497D01*
X0042556Y0156299D02*
X0037032Y0156299D01*
X0037176Y0156100D02*
X0043637Y0156100D01*
X0044021Y0155902D02*
X0037288Y0155902D01*
X0037377Y0155703D02*
X0044041Y0155703D01*
X0044060Y0155505D02*
X0037461Y0155505D01*
X0037505Y0155306D02*
X0044078Y0155306D01*
X0044096Y0155108D02*
X0037548Y0155108D01*
X0037573Y0154909D02*
X0044108Y0154909D01*
X0044108Y0154711D02*
X0037576Y0154711D01*
X0037578Y0154512D02*
X0044108Y0154512D01*
X0044108Y0154314D02*
X0037550Y0154314D01*
X0037511Y0154115D02*
X0044108Y0154115D01*
X0044108Y0153917D02*
X0037469Y0153917D01*
X0037385Y0153718D02*
X0043487Y0153718D01*
X0042406Y0153520D02*
X0037301Y0153520D01*
X0037187Y0153321D02*
X0041643Y0153321D01*
X0041593Y0153123D02*
X0037050Y0153123D01*
X0036890Y0152924D02*
X0041543Y0152924D01*
X0041494Y0152726D02*
X0036681Y0152726D01*
X0036422Y0152527D02*
X0041440Y0152527D01*
X0041373Y0152329D02*
X0036109Y0152329D01*
X0036188Y0152130D02*
X0041307Y0152130D01*
X0041228Y0151932D02*
X0036267Y0151932D01*
X0036346Y0151733D02*
X0041113Y0151733D01*
X0040997Y0151535D02*
X0036425Y0151535D01*
X0036504Y0151336D02*
X0040940Y0151336D01*
X0041077Y0151138D02*
X0036583Y0151138D01*
X0036662Y0150939D02*
X0041214Y0150939D01*
X0041351Y0150741D02*
X0036740Y0150741D01*
X0036819Y0150542D02*
X0041488Y0150542D01*
X0041625Y0150344D02*
X0036898Y0150344D01*
X0036977Y0150145D02*
X0041762Y0150145D01*
X0041899Y0149947D02*
X0037056Y0149947D01*
X0037135Y0149748D02*
X0042036Y0149748D01*
X0042173Y0149550D02*
X0037214Y0149550D01*
X0037293Y0149351D02*
X0042310Y0149351D01*
X0042257Y0149152D02*
X0037372Y0149152D01*
X0037451Y0148954D02*
X0038665Y0148954D01*
X0038368Y0148755D02*
X0037529Y0148755D01*
X0037608Y0148557D02*
X0037957Y0148557D01*
X0039041Y0148954D02*
X0042103Y0148954D01*
X0041940Y0148755D02*
X0039325Y0148755D01*
X0039608Y0148557D02*
X0041763Y0148557D01*
X0041584Y0148358D02*
X0039892Y0148358D01*
X0040176Y0148160D02*
X0041386Y0148160D01*
X0041177Y0147961D02*
X0040459Y0147961D01*
X0040743Y0147763D02*
X0040950Y0147763D01*
X0031249Y0148755D02*
X0028154Y0148755D01*
X0028333Y0148557D02*
X0030958Y0148557D01*
X0030668Y0148358D02*
X0028532Y0148358D01*
X0028739Y0148160D02*
X0030377Y0148160D01*
X0030086Y0147961D02*
X0028963Y0147961D01*
X0029189Y0147763D02*
X0029796Y0147763D01*
X0029505Y0147564D02*
X0029420Y0147564D01*
X0028923Y0157490D02*
X0041195Y0157490D01*
X0041104Y0157688D02*
X0029015Y0157688D01*
X0029121Y0157887D02*
X0040988Y0157887D01*
X0040873Y0158086D02*
X0029240Y0158086D01*
X0029357Y0158284D02*
X0040757Y0158284D01*
X0040780Y0158483D02*
X0029221Y0158483D01*
X0029086Y0158681D02*
X0040922Y0158681D01*
X0041065Y0158880D02*
X0028950Y0158880D01*
X0028814Y0159078D02*
X0041207Y0159078D01*
X0041350Y0159277D02*
X0028679Y0159277D01*
X0028543Y0159475D02*
X0041492Y0159475D01*
X0041635Y0159674D02*
X0028408Y0159674D01*
X0028272Y0159872D02*
X0041777Y0159872D01*
X0041920Y0160071D02*
X0028137Y0160071D01*
X0028001Y0160269D02*
X0042063Y0160269D01*
X0042000Y0160468D02*
X0031620Y0160468D01*
X0031509Y0160468D02*
X0028093Y0160468D01*
X0028282Y0160666D02*
X0031235Y0160666D01*
X0030961Y0160865D02*
X0028459Y0160865D01*
X0028639Y0161063D02*
X0030688Y0161063D01*
X0030414Y0161262D02*
X0028837Y0161262D01*
X0029036Y0161460D02*
X0030140Y0161460D01*
X0029866Y0161659D02*
X0029270Y0161659D01*
X0029526Y0161857D02*
X0029592Y0161857D01*
X0031967Y0160666D02*
X0038077Y0160666D01*
X0037660Y0160865D02*
X0032339Y0160865D01*
X0032851Y0161063D02*
X0037213Y0161063D01*
X0036602Y0161262D02*
X0033446Y0161262D01*
X0033538Y0161460D02*
X0036566Y0161460D01*
X0036530Y0161659D02*
X0033571Y0161659D01*
X0033604Y0161857D02*
X0036493Y0161857D01*
X0036457Y0162056D02*
X0033637Y0162056D01*
X0033670Y0162254D02*
X0036420Y0162254D01*
X0036384Y0162453D02*
X0033703Y0162453D01*
X0033736Y0162651D02*
X0036347Y0162651D01*
X0036311Y0162850D02*
X0033769Y0162850D01*
X0033802Y0163048D02*
X0036274Y0163048D01*
X0036238Y0163247D02*
X0033835Y0163247D01*
X0033868Y0163445D02*
X0036201Y0163445D01*
X0036165Y0163644D02*
X0033901Y0163644D01*
X0039790Y0161460D02*
X0041062Y0161460D01*
X0041278Y0161262D02*
X0039510Y0161262D01*
X0039229Y0161063D02*
X0041477Y0161063D01*
X0041675Y0160865D02*
X0038948Y0160865D01*
X0038668Y0160666D02*
X0041841Y0160666D01*
X0040835Y0161659D02*
X0040071Y0161659D01*
X0040352Y0161857D02*
X0040563Y0161857D01*
M02*
