G75*
%MOIN*%
%OFA0B0*%
%FSLAX25Y25*%
%IPPOS*%
%LPD*%
%AMOC8*
5,1,8,0,0,1.08239X$1,22.5*
%
%ADD10C,0.00800*%
%ADD11C,0.00500*%
%ADD12C,0.00600*%
D10*
X0043929Y0025270D02*
X0046732Y0025270D01*
X0043929Y0028072D01*
X0043929Y0028773D01*
X0044630Y0029474D01*
X0046031Y0029474D01*
X0046732Y0028773D01*
X0048533Y0028773D02*
X0049234Y0029474D01*
X0050635Y0029474D01*
X0051335Y0028773D01*
X0051335Y0025971D01*
X0050635Y0025270D01*
X0049234Y0025270D01*
X0048533Y0025971D01*
X0048533Y0028773D01*
X0053004Y0029474D02*
X0054405Y0029474D01*
X0053704Y0029474D02*
X0053704Y0025270D01*
X0053004Y0025270D02*
X0054405Y0025270D01*
X0056206Y0027372D02*
X0056907Y0026671D01*
X0059009Y0026671D01*
X0059009Y0025270D02*
X0059009Y0029474D01*
X0056907Y0029474D01*
X0056206Y0028773D01*
X0056206Y0027372D01*
X0060810Y0027372D02*
X0060810Y0025971D01*
X0061511Y0025270D01*
X0062912Y0025270D01*
X0063613Y0025971D01*
X0063613Y0028773D01*
X0062912Y0029474D01*
X0061511Y0029474D01*
X0060810Y0028773D01*
X0060810Y0027372D02*
X0062211Y0027372D01*
X0063613Y0035270D02*
X0063613Y0039474D01*
X0061511Y0039474D01*
X0060810Y0038773D01*
X0060810Y0037372D01*
X0061511Y0036671D01*
X0063613Y0036671D01*
X0065414Y0035971D02*
X0066115Y0035270D01*
X0067516Y0035270D01*
X0068217Y0035971D01*
X0068217Y0038773D01*
X0067516Y0039474D01*
X0066115Y0039474D01*
X0065414Y0038773D01*
X0065414Y0037372D02*
X0066815Y0037372D01*
X0065414Y0037372D02*
X0065414Y0035971D01*
X0059009Y0035270D02*
X0057607Y0035270D01*
X0058308Y0035270D02*
X0058308Y0039474D01*
X0059009Y0039474D02*
X0057607Y0039474D01*
X0055939Y0038773D02*
X0055939Y0035971D01*
X0055239Y0035270D01*
X0053838Y0035270D01*
X0053137Y0035971D01*
X0053137Y0038773D01*
X0053838Y0039474D01*
X0055239Y0039474D01*
X0055939Y0038773D01*
X0051335Y0038072D02*
X0049934Y0039474D01*
X0049934Y0035270D01*
X0051335Y0035270D02*
X0048533Y0035270D01*
X0046732Y0035971D02*
X0046031Y0035270D01*
X0044630Y0035270D01*
X0043929Y0035971D01*
X0043929Y0037372D01*
X0044630Y0038072D01*
X0045330Y0038072D01*
X0046732Y0037372D01*
X0046732Y0039474D01*
X0043929Y0039474D01*
X0044630Y0045270D02*
X0046031Y0045270D01*
X0046732Y0045971D01*
X0043929Y0048773D01*
X0043929Y0045971D01*
X0044630Y0045270D01*
X0046732Y0045971D02*
X0046732Y0048773D01*
X0046031Y0049474D01*
X0044630Y0049474D01*
X0043929Y0048773D01*
X0048533Y0048773D02*
X0049234Y0049474D01*
X0050635Y0049474D01*
X0051335Y0048773D01*
X0051335Y0045971D01*
X0050635Y0045270D01*
X0049234Y0045270D01*
X0048533Y0045971D01*
X0048533Y0048773D01*
X0053004Y0049474D02*
X0054405Y0049474D01*
X0053704Y0049474D02*
X0053704Y0045270D01*
X0053004Y0045270D02*
X0054405Y0045270D01*
X0056206Y0047372D02*
X0056907Y0046671D01*
X0059009Y0046671D01*
X0059009Y0045270D02*
X0059009Y0049474D01*
X0056907Y0049474D01*
X0056206Y0048773D01*
X0056206Y0047372D01*
X0060810Y0047372D02*
X0060810Y0045971D01*
X0061511Y0045270D01*
X0062912Y0045270D01*
X0063613Y0045971D01*
X0063613Y0048773D01*
X0062912Y0049474D01*
X0061511Y0049474D01*
X0060810Y0048773D01*
X0060810Y0047372D02*
X0062211Y0047372D01*
X0063613Y0055270D02*
X0063613Y0059474D01*
X0061511Y0059474D01*
X0060810Y0058773D01*
X0060810Y0057372D01*
X0061511Y0056671D01*
X0063613Y0056671D01*
X0065414Y0055971D02*
X0065414Y0057372D01*
X0066815Y0057372D01*
X0065414Y0058773D02*
X0066115Y0059474D01*
X0067516Y0059474D01*
X0068217Y0058773D01*
X0068217Y0055971D01*
X0067516Y0055270D01*
X0066115Y0055270D01*
X0065414Y0055971D01*
X0059009Y0055270D02*
X0057607Y0055270D01*
X0058308Y0055270D02*
X0058308Y0059474D01*
X0059009Y0059474D02*
X0057607Y0059474D01*
X0055939Y0058773D02*
X0055939Y0055971D01*
X0055239Y0055270D01*
X0053838Y0055270D01*
X0053137Y0055971D01*
X0053137Y0058773D01*
X0053838Y0059474D01*
X0055239Y0059474D01*
X0055939Y0058773D01*
X0051335Y0058072D02*
X0049934Y0059474D01*
X0049934Y0055270D01*
X0051335Y0055270D02*
X0048533Y0055270D01*
X0046732Y0055971D02*
X0046031Y0055270D01*
X0044630Y0055270D01*
X0043929Y0055971D01*
X0043929Y0056671D01*
X0044630Y0057372D01*
X0045330Y0057372D01*
X0044630Y0057372D02*
X0043929Y0058072D01*
X0043929Y0058773D01*
X0044630Y0059474D01*
X0046031Y0059474D01*
X0046732Y0058773D01*
X0046732Y0065270D02*
X0043929Y0065270D01*
X0043929Y0068072D02*
X0046732Y0065270D01*
X0048533Y0065270D02*
X0051335Y0065270D01*
X0049934Y0065270D02*
X0049934Y0069474D01*
X0051335Y0068072D01*
X0053137Y0068773D02*
X0053838Y0069474D01*
X0055239Y0069474D01*
X0055939Y0068773D01*
X0055939Y0065971D01*
X0055239Y0065270D01*
X0053838Y0065270D01*
X0053137Y0065971D01*
X0053137Y0068773D01*
X0057607Y0069474D02*
X0059009Y0069474D01*
X0058308Y0069474D02*
X0058308Y0065270D01*
X0059009Y0065270D02*
X0057607Y0065270D01*
X0060810Y0067372D02*
X0061511Y0066671D01*
X0063613Y0066671D01*
X0063613Y0065270D02*
X0063613Y0069474D01*
X0061511Y0069474D01*
X0060810Y0068773D01*
X0060810Y0067372D01*
X0065414Y0067372D02*
X0066815Y0067372D01*
X0065414Y0067372D02*
X0065414Y0065971D01*
X0066115Y0065270D01*
X0067516Y0065270D01*
X0068217Y0065971D01*
X0068217Y0068773D01*
X0067516Y0069474D01*
X0066115Y0069474D01*
X0065414Y0068773D01*
X0046732Y0068773D02*
X0046031Y0069474D01*
X0044630Y0069474D01*
X0043929Y0068773D01*
X0043929Y0068072D01*
X0047865Y0087396D02*
X0047165Y0088097D01*
X0047165Y0090899D01*
X0047865Y0091600D01*
X0049967Y0091600D01*
X0049967Y0087396D01*
X0047865Y0087396D01*
X0051768Y0087396D02*
X0051768Y0091600D01*
X0054571Y0091600D02*
X0051768Y0087396D01*
X0054571Y0087396D02*
X0054571Y0091600D01*
X0056372Y0090899D02*
X0057073Y0091600D01*
X0058474Y0091600D01*
X0059175Y0090899D01*
X0059175Y0088097D01*
X0058474Y0087396D01*
X0057073Y0087396D01*
X0056372Y0088097D01*
X0056372Y0089498D01*
X0057774Y0089498D01*
X0059175Y0097396D02*
X0059175Y0101600D01*
X0057073Y0101600D01*
X0056372Y0100899D01*
X0056372Y0099498D01*
X0057073Y0098797D01*
X0059175Y0098797D01*
X0057774Y0098797D02*
X0056372Y0097396D01*
X0054571Y0097396D02*
X0051768Y0101600D01*
X0054571Y0101600D02*
X0051768Y0097396D01*
X0051768Y0107396D02*
X0054571Y0111600D01*
X0056372Y0111600D02*
X0059175Y0111600D01*
X0057774Y0111600D02*
X0057774Y0107396D01*
X0054571Y0107396D02*
X0051768Y0111600D01*
X0052469Y0117396D02*
X0053870Y0117396D01*
X0054571Y0118097D01*
X0054571Y0119498D02*
X0053170Y0120198D01*
X0052469Y0120198D01*
X0051768Y0119498D01*
X0051768Y0118097D01*
X0052469Y0117396D01*
X0049967Y0118797D02*
X0048566Y0117396D01*
X0047165Y0118797D01*
X0047165Y0121600D01*
X0049967Y0121600D02*
X0049967Y0118797D01*
X0054571Y0119498D02*
X0054571Y0121600D01*
X0051768Y0121600D01*
X0056372Y0119498D02*
X0059175Y0119498D01*
X0057774Y0120899D02*
X0057774Y0118097D01*
X0053870Y0127396D02*
X0054571Y0128097D01*
X0053870Y0127396D02*
X0052469Y0127396D01*
X0051768Y0128097D01*
X0051768Y0128797D01*
X0052469Y0129498D01*
X0053170Y0129498D01*
X0052469Y0129498D02*
X0051768Y0130198D01*
X0051768Y0130899D01*
X0052469Y0131600D01*
X0053870Y0131600D01*
X0054571Y0130899D01*
X0056372Y0129498D02*
X0059175Y0129498D01*
X0057774Y0130899D02*
X0057774Y0128097D01*
X0049967Y0128797D02*
X0049967Y0131600D01*
X0047165Y0131600D02*
X0047165Y0128797D01*
X0048566Y0127396D01*
X0049967Y0128797D01*
X0045363Y0128097D02*
X0044662Y0127396D01*
X0043261Y0127396D01*
X0042561Y0128097D01*
X0042561Y0128797D01*
X0043261Y0129498D01*
X0043962Y0129498D01*
X0043261Y0129498D02*
X0042561Y0130198D01*
X0042561Y0130899D01*
X0043261Y0131600D01*
X0044662Y0131600D01*
X0045363Y0130899D01*
X0127917Y0058117D02*
X0129452Y0059652D01*
X0132521Y0059652D01*
X0134056Y0058117D01*
X0134056Y0055048D01*
X0132521Y0053513D01*
X0129452Y0053513D01*
X0127917Y0056583D02*
X0134056Y0056583D01*
X0137125Y0053513D02*
X0141729Y0053513D01*
X0143264Y0055048D01*
X0143264Y0058117D01*
X0141729Y0059652D01*
X0137125Y0059652D01*
X0146333Y0059652D02*
X0147868Y0059652D01*
X0150937Y0056583D01*
X0150937Y0059652D02*
X0150937Y0053513D01*
X0154006Y0053513D02*
X0154006Y0059652D01*
X0160145Y0059652D02*
X0160145Y0055048D01*
X0158610Y0053513D01*
X0154006Y0053513D01*
X0163214Y0055048D02*
X0163214Y0058117D01*
X0164749Y0059652D01*
X0167818Y0059652D01*
X0169353Y0058117D01*
X0169353Y0055048D01*
X0167818Y0053513D01*
X0164749Y0053513D01*
X0163214Y0055048D01*
X0172422Y0055048D02*
X0173957Y0056583D01*
X0177026Y0056583D01*
X0178561Y0058117D01*
X0177026Y0059652D01*
X0172422Y0059652D01*
X0172422Y0055048D02*
X0173957Y0053513D01*
X0178561Y0053513D01*
X0190838Y0053513D02*
X0190838Y0058117D01*
X0192372Y0059652D01*
X0196976Y0059652D01*
X0196976Y0053513D01*
X0200046Y0056583D02*
X0206184Y0056583D01*
X0206184Y0058117D02*
X0206184Y0055048D01*
X0204650Y0053513D01*
X0201580Y0053513D01*
X0200046Y0056583D02*
X0200046Y0058117D01*
X0201580Y0059652D01*
X0204650Y0059652D01*
X0206184Y0058117D01*
X0209254Y0058117D02*
X0209254Y0055048D01*
X0210788Y0053513D01*
X0215392Y0053513D01*
X0218461Y0055048D02*
X0218461Y0058117D01*
X0219996Y0059652D01*
X0223065Y0059652D01*
X0224600Y0058117D01*
X0224600Y0055048D01*
X0223065Y0053513D01*
X0219996Y0053513D01*
X0218461Y0055048D01*
X0215392Y0050444D02*
X0215392Y0059652D01*
X0210788Y0059652D01*
X0209254Y0058117D01*
X0206184Y0047721D02*
X0206184Y0038513D01*
X0200046Y0038513D02*
X0200046Y0043117D01*
X0201580Y0044652D01*
X0204650Y0044652D01*
X0206184Y0043117D01*
X0196976Y0040048D02*
X0195442Y0041583D01*
X0190838Y0041583D01*
X0190838Y0043117D02*
X0190838Y0038513D01*
X0195442Y0038513D01*
X0196976Y0040048D01*
X0192372Y0044652D02*
X0190838Y0043117D01*
X0192372Y0044652D02*
X0195442Y0044652D01*
X0187769Y0044652D02*
X0187769Y0038513D01*
X0187769Y0041583D02*
X0184699Y0044652D01*
X0183165Y0044652D01*
X0180095Y0043117D02*
X0178561Y0044652D01*
X0173957Y0044652D01*
X0173957Y0047721D02*
X0173957Y0038513D01*
X0178561Y0038513D01*
X0180095Y0040048D01*
X0180095Y0043117D01*
X0170887Y0044652D02*
X0170887Y0040048D01*
X0169353Y0038513D01*
X0167818Y0040048D01*
X0166284Y0038513D01*
X0164749Y0040048D01*
X0164749Y0044652D01*
X0160145Y0044652D02*
X0157076Y0044652D01*
X0155541Y0043117D01*
X0155541Y0038513D01*
X0160145Y0038513D01*
X0161680Y0040048D01*
X0160145Y0041583D01*
X0155541Y0041583D01*
X0152472Y0041583D02*
X0149402Y0044652D01*
X0147868Y0044652D01*
X0144798Y0043117D02*
X0143264Y0044652D01*
X0140195Y0044652D01*
X0138660Y0043117D01*
X0138660Y0041583D01*
X0144798Y0041583D01*
X0144798Y0043117D02*
X0144798Y0040048D01*
X0143264Y0038513D01*
X0140195Y0038513D01*
X0152472Y0038513D02*
X0152472Y0044652D01*
X0127917Y0056583D02*
X0127917Y0058117D01*
X0116159Y0016265D02*
X0117561Y0014864D01*
X0117561Y0013463D01*
X0116159Y0012061D01*
X0114491Y0013463D02*
X0111689Y0013463D01*
X0111689Y0014864D02*
X0114491Y0014864D01*
X0109887Y0014864D02*
X0108486Y0016265D01*
X0107085Y0014864D01*
X0105284Y0012762D02*
X0105284Y0012061D01*
X0104583Y0012061D01*
X0104583Y0012762D01*
X0105284Y0012762D01*
X0102982Y0012762D02*
X0102982Y0012061D01*
X0102281Y0012061D01*
X0102281Y0012762D01*
X0102982Y0012762D01*
X0100680Y0014864D02*
X0099278Y0016265D01*
X0097877Y0014864D01*
X0096076Y0014864D02*
X0093273Y0014864D01*
X0093273Y0013463D02*
X0096076Y0013463D01*
X0091472Y0012061D02*
X0090071Y0013463D01*
X0090071Y0014864D01*
X0091472Y0016265D01*
D11*
X0142548Y0068813D02*
X0144248Y0067313D01*
X0150848Y0072013D01*
X0152048Y0071213D01*
X0153648Y0070313D01*
X0154948Y0069713D01*
X0160148Y0082913D01*
X0158934Y0083500D01*
X0157826Y0084269D01*
X0156852Y0085202D01*
X0156036Y0086276D01*
X0155398Y0087464D01*
X0154953Y0088738D01*
X0154713Y0090065D01*
X0154684Y0091413D01*
X0154865Y0092749D01*
X0155254Y0094041D01*
X0155839Y0095256D01*
X0156607Y0096364D01*
X0157539Y0097339D01*
X0158612Y0098156D01*
X0159800Y0098795D01*
X0161073Y0099241D01*
X0162400Y0099483D01*
X0163748Y0099513D01*
X0165071Y0099419D01*
X0166363Y0099122D01*
X0167594Y0098630D01*
X0168735Y0097953D01*
X0169758Y0097109D01*
X0170638Y0096118D01*
X0171355Y0095002D01*
X0171892Y0093790D01*
X0172235Y0092509D01*
X0172377Y0091190D01*
X0172314Y0089866D01*
X0172048Y0088567D01*
X0171585Y0087324D01*
X0170936Y0086168D01*
X0170116Y0085126D01*
X0169146Y0084222D01*
X0168048Y0083479D01*
X0166848Y0082913D01*
X0171548Y0069413D01*
X0172748Y0069913D01*
X0174148Y0070613D01*
X0175548Y0071413D01*
X0182148Y0066713D01*
X0183448Y0067713D01*
X0185048Y0069113D01*
X0186248Y0070413D01*
X0187448Y0071813D01*
X0182748Y0078513D01*
X0183848Y0080613D01*
X0184648Y0082413D01*
X0185248Y0083913D01*
X0185648Y0085713D01*
X0193748Y0087213D01*
X0193848Y0088813D01*
X0193848Y0093313D01*
X0193748Y0094613D01*
X0185648Y0095813D01*
X0185048Y0097913D01*
X0184448Y0099513D01*
X0183648Y0101213D01*
X0182648Y0102713D01*
X0187348Y0109513D01*
X0186048Y0110913D01*
X0184748Y0112313D01*
X0183448Y0113513D01*
X0181948Y0114813D01*
X0175248Y0110013D01*
X0174048Y0110613D01*
X0172448Y0111413D01*
X0170848Y0112013D01*
X0168948Y0112613D01*
X0167848Y0118413D01*
X0167448Y0120713D01*
X0165748Y0120913D01*
X0161648Y0120913D01*
X0159748Y0120713D01*
X0158448Y0112713D01*
X0156948Y0112213D01*
X0155348Y0111613D01*
X0153648Y0110913D01*
X0152448Y0110213D01*
X0145448Y0115013D01*
X0143748Y0113513D01*
X0142248Y0112213D01*
X0141148Y0110913D01*
X0139948Y0109513D01*
X0144648Y0102913D01*
X0144048Y0101913D01*
X0143448Y0100813D01*
X0142548Y0098913D01*
X0141948Y0096813D01*
X0133648Y0095213D01*
X0133448Y0093113D01*
X0133348Y0091113D01*
X0133348Y0087813D01*
X0141448Y0086313D01*
X0141748Y0085113D01*
X0142348Y0083113D01*
X0143048Y0081213D01*
X0143848Y0079513D01*
X0139148Y0072713D01*
X0139848Y0071813D01*
X0140948Y0070513D01*
X0142548Y0068813D01*
X0142814Y0068578D02*
X0146025Y0068578D01*
X0146725Y0069077D02*
X0142300Y0069077D01*
X0141831Y0069575D02*
X0147425Y0069575D01*
X0148125Y0070074D02*
X0141362Y0070074D01*
X0140898Y0070573D02*
X0148825Y0070573D01*
X0149525Y0071071D02*
X0140476Y0071071D01*
X0140054Y0071570D02*
X0150225Y0071570D01*
X0151514Y0071570D02*
X0155679Y0071570D01*
X0155876Y0072068D02*
X0139650Y0072068D01*
X0139262Y0072567D02*
X0156072Y0072567D01*
X0156268Y0073065D02*
X0139391Y0073065D01*
X0139736Y0073564D02*
X0156465Y0073564D01*
X0156661Y0074062D02*
X0140080Y0074062D01*
X0140425Y0074561D02*
X0156858Y0074561D01*
X0157054Y0075059D02*
X0140769Y0075059D01*
X0141114Y0075558D02*
X0157250Y0075558D01*
X0157447Y0076056D02*
X0141458Y0076056D01*
X0141803Y0076555D02*
X0157643Y0076555D01*
X0157839Y0077053D02*
X0142148Y0077053D01*
X0142492Y0077552D02*
X0158036Y0077552D01*
X0158232Y0078050D02*
X0142837Y0078050D01*
X0143181Y0078549D02*
X0158429Y0078549D01*
X0158625Y0079047D02*
X0143526Y0079047D01*
X0143833Y0079546D02*
X0158821Y0079546D01*
X0159018Y0080044D02*
X0143598Y0080044D01*
X0143364Y0080543D02*
X0159214Y0080543D01*
X0159411Y0081041D02*
X0143129Y0081041D01*
X0142928Y0081540D02*
X0159607Y0081540D01*
X0159803Y0082038D02*
X0142744Y0082038D01*
X0142560Y0082537D02*
X0160000Y0082537D01*
X0159896Y0083035D02*
X0142377Y0083035D01*
X0142222Y0083534D02*
X0158885Y0083534D01*
X0158167Y0084032D02*
X0142072Y0084032D01*
X0141923Y0084531D02*
X0157553Y0084531D01*
X0157033Y0085029D02*
X0141773Y0085029D01*
X0141644Y0085528D02*
X0156605Y0085528D01*
X0156226Y0086026D02*
X0141520Y0086026D01*
X0140306Y0086525D02*
X0155902Y0086525D01*
X0155635Y0087023D02*
X0137614Y0087023D01*
X0134922Y0087522D02*
X0155378Y0087522D01*
X0155204Y0088020D02*
X0133348Y0088020D01*
X0133348Y0088519D02*
X0155030Y0088519D01*
X0154903Y0089017D02*
X0133348Y0089017D01*
X0133348Y0089516D02*
X0154813Y0089516D01*
X0154722Y0090014D02*
X0133348Y0090014D01*
X0133348Y0090513D02*
X0154704Y0090513D01*
X0154693Y0091011D02*
X0133348Y0091011D01*
X0133368Y0091510D02*
X0154697Y0091510D01*
X0154765Y0092008D02*
X0133393Y0092008D01*
X0133418Y0092507D02*
X0154833Y0092507D01*
X0154942Y0093006D02*
X0133443Y0093006D01*
X0133485Y0093504D02*
X0155092Y0093504D01*
X0155242Y0094003D02*
X0133533Y0094003D01*
X0133580Y0094501D02*
X0155475Y0094501D01*
X0155716Y0095000D02*
X0133628Y0095000D01*
X0135125Y0095498D02*
X0156007Y0095498D01*
X0156353Y0095997D02*
X0137711Y0095997D01*
X0140297Y0096495D02*
X0156732Y0096495D01*
X0157209Y0096994D02*
X0142000Y0096994D01*
X0142142Y0097492D02*
X0157740Y0097492D01*
X0158395Y0097991D02*
X0142284Y0097991D01*
X0142427Y0098489D02*
X0159231Y0098489D01*
X0160349Y0098988D02*
X0142583Y0098988D01*
X0142819Y0099486D02*
X0162559Y0099486D01*
X0164130Y0099486D02*
X0184458Y0099486D01*
X0184645Y0098988D02*
X0166700Y0098988D01*
X0167831Y0098489D02*
X0184832Y0098489D01*
X0185019Y0097991D02*
X0168672Y0097991D01*
X0169294Y0097492D02*
X0185168Y0097492D01*
X0185311Y0096994D02*
X0169860Y0096994D01*
X0170303Y0096495D02*
X0185453Y0096495D01*
X0185596Y0095997D02*
X0170716Y0095997D01*
X0171037Y0095498D02*
X0187776Y0095498D01*
X0191141Y0095000D02*
X0171356Y0095000D01*
X0171577Y0094501D02*
X0193757Y0094501D01*
X0193795Y0094003D02*
X0171798Y0094003D01*
X0171969Y0093504D02*
X0193833Y0093504D01*
X0193848Y0093006D02*
X0172102Y0093006D01*
X0172236Y0092507D02*
X0193848Y0092507D01*
X0193848Y0092008D02*
X0172289Y0092008D01*
X0172343Y0091510D02*
X0193848Y0091510D01*
X0193848Y0091011D02*
X0172369Y0091011D01*
X0172345Y0090513D02*
X0193848Y0090513D01*
X0193848Y0090014D02*
X0172322Y0090014D01*
X0172243Y0089516D02*
X0193848Y0089516D01*
X0193848Y0089017D02*
X0172141Y0089017D01*
X0172030Y0088519D02*
X0193830Y0088519D01*
X0193798Y0088020D02*
X0171844Y0088020D01*
X0171659Y0087522D02*
X0193767Y0087522D01*
X0192722Y0087023D02*
X0171416Y0087023D01*
X0171136Y0086525D02*
X0190030Y0086525D01*
X0187338Y0086026D02*
X0170824Y0086026D01*
X0170432Y0085528D02*
X0185607Y0085528D01*
X0185496Y0085029D02*
X0170013Y0085029D01*
X0169477Y0084531D02*
X0185385Y0084531D01*
X0185274Y0084032D02*
X0168866Y0084032D01*
X0168129Y0083534D02*
X0185096Y0083534D01*
X0184897Y0083035D02*
X0167107Y0083035D01*
X0166979Y0082537D02*
X0184697Y0082537D01*
X0184481Y0082038D02*
X0167153Y0082038D01*
X0167326Y0081540D02*
X0184260Y0081540D01*
X0184038Y0081041D02*
X0167500Y0081041D01*
X0167673Y0080543D02*
X0183811Y0080543D01*
X0183550Y0080044D02*
X0167847Y0080044D01*
X0168020Y0079546D02*
X0183289Y0079546D01*
X0183028Y0079047D02*
X0168194Y0079047D01*
X0168368Y0078549D02*
X0182767Y0078549D01*
X0183073Y0078050D02*
X0168541Y0078050D01*
X0168715Y0077552D02*
X0183423Y0077552D01*
X0183772Y0077053D02*
X0168888Y0077053D01*
X0169062Y0076555D02*
X0184122Y0076555D01*
X0184472Y0076056D02*
X0169235Y0076056D01*
X0169409Y0075558D02*
X0184821Y0075558D01*
X0185171Y0075059D02*
X0169582Y0075059D01*
X0169756Y0074561D02*
X0185521Y0074561D01*
X0185871Y0074062D02*
X0169930Y0074062D01*
X0170103Y0073564D02*
X0186220Y0073564D01*
X0186570Y0073065D02*
X0170277Y0073065D01*
X0170450Y0072567D02*
X0186920Y0072567D01*
X0187269Y0072068D02*
X0170624Y0072068D01*
X0170797Y0071570D02*
X0187239Y0071570D01*
X0186812Y0071071D02*
X0176029Y0071071D01*
X0176729Y0070573D02*
X0186384Y0070573D01*
X0185935Y0070074D02*
X0177429Y0070074D01*
X0178129Y0069575D02*
X0185475Y0069575D01*
X0185006Y0069077D02*
X0178829Y0069077D01*
X0179529Y0068578D02*
X0184437Y0068578D01*
X0183867Y0068080D02*
X0180229Y0068080D01*
X0180929Y0067581D02*
X0183277Y0067581D01*
X0182628Y0067083D02*
X0181629Y0067083D01*
X0174066Y0070573D02*
X0171144Y0070573D01*
X0170971Y0071071D02*
X0174949Y0071071D01*
X0173069Y0070074D02*
X0171318Y0070074D01*
X0171492Y0069575D02*
X0171937Y0069575D01*
X0155483Y0071071D02*
X0152301Y0071071D01*
X0153187Y0070573D02*
X0155286Y0070573D01*
X0155090Y0070074D02*
X0154167Y0070074D01*
X0145324Y0068080D02*
X0143379Y0068080D01*
X0143944Y0067581D02*
X0144624Y0067581D01*
X0143055Y0099985D02*
X0184226Y0099985D01*
X0183992Y0100483D02*
X0143292Y0100483D01*
X0143540Y0100982D02*
X0183757Y0100982D01*
X0183470Y0101480D02*
X0143812Y0101480D01*
X0144087Y0101979D02*
X0183138Y0101979D01*
X0182805Y0102477D02*
X0144386Y0102477D01*
X0144604Y0102976D02*
X0182829Y0102976D01*
X0183174Y0103474D02*
X0144249Y0103474D01*
X0143894Y0103973D02*
X0183518Y0103973D01*
X0183863Y0104471D02*
X0143539Y0104471D01*
X0143184Y0104970D02*
X0184208Y0104970D01*
X0184552Y0105468D02*
X0142829Y0105468D01*
X0142474Y0105967D02*
X0184897Y0105967D01*
X0185241Y0106465D02*
X0142119Y0106465D01*
X0141764Y0106964D02*
X0185586Y0106964D01*
X0185930Y0107462D02*
X0141409Y0107462D01*
X0141054Y0107961D02*
X0186275Y0107961D01*
X0186620Y0108459D02*
X0140699Y0108459D01*
X0140344Y0108958D02*
X0186964Y0108958D01*
X0187309Y0109456D02*
X0139989Y0109456D01*
X0140326Y0109955D02*
X0186938Y0109955D01*
X0186475Y0110453D02*
X0175862Y0110453D01*
X0176558Y0110952D02*
X0186012Y0110952D01*
X0185549Y0111450D02*
X0177254Y0111450D01*
X0177950Y0111949D02*
X0185086Y0111949D01*
X0184603Y0112447D02*
X0178646Y0112447D01*
X0179341Y0112946D02*
X0184063Y0112946D01*
X0183523Y0113444D02*
X0180037Y0113444D01*
X0180733Y0113943D02*
X0182952Y0113943D01*
X0182377Y0114441D02*
X0181429Y0114441D01*
X0174368Y0110453D02*
X0152859Y0110453D01*
X0152098Y0110453D02*
X0140754Y0110453D01*
X0141181Y0110952D02*
X0151371Y0110952D01*
X0150644Y0111450D02*
X0141602Y0111450D01*
X0142024Y0111949D02*
X0149917Y0111949D01*
X0149190Y0112447D02*
X0142518Y0112447D01*
X0143093Y0112946D02*
X0148463Y0112946D01*
X0147736Y0113444D02*
X0143669Y0113444D01*
X0144235Y0113943D02*
X0147009Y0113943D01*
X0146282Y0114441D02*
X0144800Y0114441D01*
X0145365Y0114940D02*
X0145555Y0114940D01*
X0153742Y0110952D02*
X0173371Y0110952D01*
X0172349Y0111450D02*
X0154952Y0111450D01*
X0156243Y0111949D02*
X0171020Y0111949D01*
X0169473Y0112447D02*
X0157650Y0112447D01*
X0158486Y0112946D02*
X0168885Y0112946D01*
X0168790Y0113444D02*
X0158567Y0113444D01*
X0158648Y0113943D02*
X0168696Y0113943D01*
X0168601Y0114441D02*
X0158729Y0114441D01*
X0158810Y0114940D02*
X0168507Y0114940D01*
X0168412Y0115439D02*
X0158891Y0115439D01*
X0158972Y0115937D02*
X0168318Y0115937D01*
X0168223Y0116436D02*
X0159053Y0116436D01*
X0159134Y0116934D02*
X0168129Y0116934D01*
X0168034Y0117433D02*
X0159215Y0117433D01*
X0159296Y0117931D02*
X0167939Y0117931D01*
X0167845Y0118430D02*
X0159377Y0118430D01*
X0159458Y0118928D02*
X0167759Y0118928D01*
X0167672Y0119427D02*
X0159539Y0119427D01*
X0159620Y0119925D02*
X0167585Y0119925D01*
X0167498Y0120424D02*
X0159701Y0120424D01*
D12*
X0177391Y0142781D02*
X0180713Y0141572D01*
X0185245Y0143685D01*
X0186454Y0147007D01*
X0189776Y0145798D01*
X0194308Y0147911D01*
X0195517Y0151233D01*
X0198840Y0150024D01*
X0203371Y0152137D01*
X0204580Y0155459D01*
X0202467Y0159991D01*
X0199145Y0161200D01*
X0194613Y0159087D01*
X0193404Y0155765D01*
X0190082Y0156974D01*
X0185550Y0154861D01*
X0184341Y0151538D01*
X0181019Y0152748D01*
X0176487Y0150635D01*
X0175278Y0147312D01*
X0177391Y0142781D01*
X0186454Y0147007D02*
X0184341Y0151538D01*
X0193404Y0155765D02*
X0195517Y0151233D01*
M02*
