%
M48
M72
T01C0.0236
T02C0.0315
T03C0.0354
T04C0.0400
T05C0.0591
T06C0.1260
%
T01
X6083Y1709
X8190Y2741
X7087Y4473
X8706Y4859
X12091Y5587
X9375Y6930
X8143Y7005
X5761Y6894
X7143Y8481
X7906Y8473
X6190Y8599
X6013Y9363
X8800Y11056
X7103Y11414
X7906Y11831
X9954Y11855
X10560Y12540
X12489Y11820
X13150Y11481
X10320Y10190
X12469Y8706
X16387Y7517
X16406Y6969
X17028Y8111
X17686Y8816
X24371Y8682
X25083Y8087
X30745Y7513
X39749Y11796
X42398Y11946
X36351Y11902
X31780Y13780
X30430Y11914
X23005Y12194
X10540Y13363
X40564Y14717
T02
X19349Y13123
X13286Y13123
X15333Y1548
X17302Y1548
T03
X20950Y5835
X25674Y5835
X26847Y5828
X31572Y5828
X32753Y5831
X37477Y5831
X38664Y5826
X43389Y5826
X43389Y10550
X41026Y11337
X38664Y10550
X37477Y10556
X35115Y11343
X32753Y10556
X31572Y10552
X29209Y11339
X26847Y10552
X25674Y10560
X23312Y11347
X20950Y10560
T04
X18087Y14716
X18993Y15139
X19899Y15561
X24540Y15694
X25540Y15694
X26540Y15694
X27540Y15694
X3284Y12934
X3284Y11934
X3284Y10934
X3284Y9934
X3284Y8934
X3261Y6737
X3261Y5737
X3261Y4737
X3261Y3737
X3261Y2737
T05
X9377Y2601
X11345Y2601
X21383Y2615
X23351Y2615
X25320Y2615
X27280Y2615
X29249Y2615
X31217Y2615
X33166Y2615
X35135Y2615
X37103Y2615
X39081Y2617
X41050Y2617
X43019Y2617
T06
X1505Y1599
X1494Y15672
X44972Y13932
X44973Y1607
M30
