G75*
%MOIN*%
%OFA0B0*%
%FSLAX25Y25*%
%IPPOS*%
%LPD*%
%AMOC8*
5,1,8,0,0,1.08239X$1,22.5*
%
%ADD10C,0.13398*%
%ADD11R,0.08674X0.07099*%
%ADD12R,0.06706X0.05918*%
%ADD13R,0.06312X0.07887*%
%ADD14R,0.05524X0.05524*%
%ADD15R,0.07099X0.07898*%
%ADD16C,0.09658*%
%ADD17R,0.12611X0.05524*%
%ADD18C,0.06343*%
%ADD19R,0.05950X0.05950*%
%ADD20R,0.05300X0.04800*%
%ADD21C,0.06800*%
%ADD22R,0.05131X0.03556*%
%ADD23R,0.11824X0.08674*%
%ADD24R,0.07887X0.07099*%
%ADD25C,0.04762*%
D10*
X0015047Y0015992D03*
X0014937Y0156724D03*
X0449724Y0139319D03*
X0449732Y0016071D03*
D11*
X0070559Y0018846D03*
X0051091Y0018846D03*
X0051091Y0038531D03*
X0070559Y0038531D03*
D12*
X0076622Y0055520D03*
X0088669Y0055539D03*
X0101799Y0055559D03*
X0115185Y0055579D03*
X0115185Y0063059D03*
X0101799Y0063039D03*
X0088669Y0063020D03*
X0076622Y0063000D03*
X0064417Y0063059D03*
X0052311Y0063098D03*
X0052311Y0055618D03*
X0064417Y0055579D03*
D13*
X0210126Y0127528D03*
X0223512Y0127528D03*
X0268945Y0127646D03*
X0282331Y0127646D03*
X0328551Y0127606D03*
X0341937Y0127606D03*
X0386996Y0127783D03*
X0400382Y0127783D03*
D14*
X0411248Y0127803D03*
X0419516Y0127803D03*
X0360717Y0127606D03*
X0352449Y0127606D03*
X0300717Y0127646D03*
X0292449Y0127646D03*
X0242646Y0127528D03*
X0234378Y0127528D03*
D15*
X0232913Y0141386D03*
X0222417Y0141386D03*
X0211220Y0141386D03*
X0244110Y0141386D03*
X0270039Y0141386D03*
X0281236Y0141386D03*
X0290984Y0141386D03*
X0302181Y0141386D03*
X0329646Y0141425D03*
X0340843Y0141425D03*
X0351024Y0141425D03*
X0362220Y0141425D03*
X0388091Y0141366D03*
X0399287Y0141366D03*
X0409764Y0141386D03*
X0420961Y0141386D03*
D16*
X0430185Y0026169D03*
X0410500Y0026169D03*
X0390815Y0026169D03*
X0371031Y0026150D03*
X0351346Y0026150D03*
X0331661Y0026150D03*
X0312173Y0026150D03*
X0292488Y0026150D03*
X0272803Y0026150D03*
X0253197Y0026150D03*
X0233512Y0026150D03*
X0213827Y0026150D03*
X0113453Y0026012D03*
X0093768Y0026012D03*
D17*
X0114870Y0078866D03*
X0114870Y0086740D03*
X0114870Y0094614D03*
X0114870Y0102488D03*
X0114870Y0110362D03*
X0114870Y0118236D03*
X0114870Y0126110D03*
X0114870Y0133984D03*
X0050303Y0133984D03*
X0050303Y0126110D03*
X0050303Y0118236D03*
X0050303Y0110362D03*
X0050303Y0102488D03*
X0050303Y0094614D03*
X0050303Y0086740D03*
X0050303Y0078866D03*
D18*
X0209496Y0058354D03*
X0256740Y0058354D03*
X0268472Y0058276D03*
X0315717Y0058276D03*
X0327528Y0058315D03*
X0374772Y0058315D03*
X0386642Y0058256D03*
X0433886Y0058256D03*
X0433886Y0105500D03*
X0410264Y0113374D03*
X0386642Y0105500D03*
X0374772Y0105559D03*
X0351150Y0113433D03*
X0327528Y0105559D03*
X0315717Y0105520D03*
X0292094Y0113394D03*
X0268472Y0105520D03*
X0256740Y0105598D03*
X0233118Y0113472D03*
X0209496Y0105598D03*
D19*
X0193492Y0131228D03*
X0132862Y0131228D03*
X0153335Y0015480D03*
X0173020Y0015480D03*
D20*
X0251520Y0124028D03*
X0259520Y0127528D03*
X0251520Y0131028D03*
X0309197Y0131185D03*
X0317197Y0127685D03*
X0309197Y0124185D03*
X0368567Y0124106D03*
X0376567Y0127606D03*
X0368567Y0131106D03*
X0428685Y0131264D03*
X0436685Y0127764D03*
X0428685Y0124264D03*
D21*
X0275402Y0153937D02*
X0275402Y0159937D01*
X0265402Y0159937D02*
X0265402Y0153937D01*
X0255402Y0153937D02*
X0255402Y0159937D01*
X0245402Y0159937D02*
X0245402Y0153937D01*
X0200260Y0152893D02*
X0197724Y0158331D01*
X0188661Y0154105D02*
X0191197Y0148667D01*
X0182134Y0144441D02*
X0179598Y0149879D01*
X0035843Y0129339D02*
X0029843Y0129339D01*
X0029843Y0119339D02*
X0035843Y0119339D01*
X0035843Y0109339D02*
X0029843Y0109339D01*
X0029843Y0099339D02*
X0035843Y0099339D01*
X0035843Y0089339D02*
X0029843Y0089339D01*
X0029606Y0067370D02*
X0035606Y0067370D01*
X0035606Y0057370D02*
X0029606Y0057370D01*
X0029606Y0047370D02*
X0035606Y0047370D01*
X0035606Y0037370D02*
X0029606Y0037370D01*
X0029606Y0027370D02*
X0035606Y0027370D01*
D22*
X0138925Y0148315D03*
X0138925Y0160126D03*
D23*
X0149358Y0154220D03*
D24*
X0164693Y0148049D03*
X0164693Y0160549D03*
X0127370Y0160549D03*
X0127370Y0148049D03*
D25*
X0105402Y0133630D03*
X0105598Y0125402D03*
X0099535Y0118551D03*
X0088000Y0110559D03*
X0071031Y0114142D03*
X0079063Y0118315D03*
X0103197Y0101898D03*
X0131504Y0114811D03*
X0124890Y0118197D03*
X0060126Y0093630D03*
X0061898Y0085992D03*
X0071425Y0084811D03*
X0079063Y0084732D03*
X0081425Y0070047D03*
X0093748Y0069299D03*
X0120913Y0055874D03*
X0087055Y0048591D03*
X0070874Y0044732D03*
X0081898Y0027409D03*
X0060835Y0017094D03*
X0057606Y0068945D03*
X0124693Y0087055D03*
X0163866Y0075165D03*
X0164063Y0069693D03*
X0170283Y0081110D03*
X0176858Y0088157D03*
X0243709Y0086819D03*
X0250835Y0080874D03*
X0307449Y0075126D03*
X0397488Y0117961D03*
X0423984Y0119457D03*
X0363512Y0119024D03*
X0317803Y0137803D03*
X0304299Y0119142D03*
X0230047Y0121937D03*
X0405638Y0147173D03*
M02*
