G75*
%MOIN*%
%OFA0B0*%
%FSLAX25Y25*%
%IPPOS*%
%LPD*%
%AMOC8*
5,1,8,0,0,1.08239X$1,22.5*
%
%ADD10R,0.07874X0.06299*%
%ADD11R,0.05906X0.05118*%
%ADD12R,0.05512X0.07087*%
%ADD13R,0.04724X0.04724*%
%ADD14R,0.06299X0.07098*%
%ADD15C,0.08858*%
%ADD16R,0.11811X0.04724*%
%ADD17C,0.05543*%
%ADD18R,0.05150X0.05150*%
%ADD19R,0.04500X0.04000*%
%ADD20C,0.06000*%
%ADD21R,0.04331X0.02756*%
%ADD22R,0.07087X0.02756*%
%ADD23R,0.11024X0.07874*%
%ADD24R,0.07087X0.06299*%
%ADD25C,0.03962*%
%ADD26C,0.03200*%
%ADD27C,0.05000*%
%ADD28C,0.01600*%
%ADD29C,0.04000*%
%ADD30C,0.15000*%
%ADD31C,0.05600*%
D10*
X0051091Y0018846D03*
X0070559Y0018846D03*
X0070559Y0038531D03*
X0051091Y0038531D03*
D11*
X0052311Y0055618D03*
X0064417Y0055579D03*
X0076622Y0055520D03*
X0088669Y0055539D03*
X0101799Y0055559D03*
X0115185Y0055579D03*
X0115185Y0063059D03*
X0101799Y0063039D03*
X0088669Y0063020D03*
X0076622Y0063000D03*
X0064417Y0063059D03*
X0052311Y0063098D03*
D12*
X0210126Y0127528D03*
X0223512Y0127528D03*
X0268945Y0127646D03*
X0282331Y0127646D03*
X0328551Y0127606D03*
X0341937Y0127606D03*
X0386996Y0127783D03*
X0400382Y0127783D03*
D13*
X0411248Y0127803D03*
X0419516Y0127803D03*
X0360717Y0127606D03*
X0352449Y0127606D03*
X0300717Y0127646D03*
X0292449Y0127646D03*
X0242646Y0127528D03*
X0234378Y0127528D03*
D14*
X0232913Y0141386D03*
X0222417Y0141386D03*
X0211220Y0141386D03*
X0244110Y0141386D03*
X0270039Y0141386D03*
X0281236Y0141386D03*
X0290984Y0141386D03*
X0302181Y0141386D03*
X0329646Y0141425D03*
X0340843Y0141425D03*
X0351024Y0141425D03*
X0362220Y0141425D03*
X0388091Y0141366D03*
X0399287Y0141366D03*
X0409764Y0141386D03*
X0420961Y0141386D03*
D15*
X0430185Y0026169D03*
X0410500Y0026169D03*
X0390815Y0026169D03*
X0371031Y0026150D03*
X0351346Y0026150D03*
X0331661Y0026150D03*
X0312173Y0026150D03*
X0292488Y0026150D03*
X0272803Y0026150D03*
X0253197Y0026150D03*
X0233512Y0026150D03*
X0213827Y0026150D03*
X0113453Y0026012D03*
X0093768Y0026012D03*
D16*
X0114870Y0078866D03*
X0114870Y0086740D03*
X0114870Y0094614D03*
X0114870Y0102488D03*
X0114870Y0110362D03*
X0114870Y0118236D03*
X0114870Y0126110D03*
X0114870Y0133984D03*
X0050303Y0133984D03*
X0050303Y0126110D03*
X0050303Y0118236D03*
X0050303Y0110362D03*
X0050303Y0102488D03*
X0050303Y0094614D03*
X0050303Y0086740D03*
X0050303Y0078866D03*
D17*
X0209496Y0058354D03*
X0256740Y0058354D03*
X0268472Y0058276D03*
X0315717Y0058276D03*
X0327528Y0058315D03*
X0374772Y0058315D03*
X0386642Y0058256D03*
X0433886Y0058256D03*
X0433886Y0105500D03*
X0410264Y0113374D03*
X0386642Y0105500D03*
X0374772Y0105559D03*
X0351150Y0113433D03*
X0327528Y0105559D03*
X0315717Y0105520D03*
X0292094Y0113394D03*
X0268472Y0105520D03*
X0256740Y0105598D03*
X0233118Y0113472D03*
X0209496Y0105598D03*
D18*
X0193492Y0131228D03*
X0132862Y0131228D03*
X0153335Y0015480D03*
X0173020Y0015480D03*
D19*
X0251520Y0124028D03*
X0259520Y0127528D03*
X0251520Y0131028D03*
X0309197Y0131185D03*
X0317197Y0127685D03*
X0309197Y0124185D03*
X0368567Y0124106D03*
X0376567Y0127606D03*
X0368567Y0131106D03*
X0428685Y0131264D03*
X0436685Y0127764D03*
X0428685Y0124264D03*
D20*
X0275402Y0153937D02*
X0275402Y0159937D01*
X0265402Y0159937D02*
X0265402Y0153937D01*
X0255402Y0153937D02*
X0255402Y0159937D01*
X0245402Y0159937D02*
X0245402Y0153937D01*
X0200260Y0152893D02*
X0197724Y0158331D01*
X0188661Y0154105D02*
X0191197Y0148667D01*
X0182134Y0144441D02*
X0179598Y0149879D01*
X0035843Y0129339D02*
X0029843Y0129339D01*
X0029843Y0119339D02*
X0035843Y0119339D01*
X0035843Y0109339D02*
X0029843Y0109339D01*
X0029843Y0099339D02*
X0035843Y0099339D01*
X0035843Y0089339D02*
X0029843Y0089339D01*
X0029606Y0067370D02*
X0035606Y0067370D01*
X0035606Y0057370D02*
X0029606Y0057370D01*
X0029606Y0047370D02*
X0035606Y0047370D01*
X0035606Y0037370D02*
X0029606Y0037370D01*
X0029606Y0027370D02*
X0035606Y0027370D01*
D21*
X0138925Y0148315D03*
X0138925Y0160126D03*
D22*
X0140303Y0154220D03*
D23*
X0149358Y0154220D03*
D24*
X0164693Y0148049D03*
X0164693Y0160549D03*
X0127370Y0160549D03*
X0127370Y0148049D03*
D25*
X0105402Y0133630D03*
X0105598Y0125402D03*
X0099535Y0118551D03*
X0088000Y0110559D03*
X0071031Y0114142D03*
X0079063Y0118315D03*
X0103197Y0101898D03*
X0131504Y0114811D03*
X0124890Y0118197D03*
X0060126Y0093630D03*
X0061898Y0085992D03*
X0071425Y0084811D03*
X0079063Y0084732D03*
X0081425Y0070047D03*
X0093748Y0069299D03*
X0120913Y0055874D03*
X0087055Y0048591D03*
X0070874Y0044732D03*
X0081898Y0027409D03*
X0060835Y0017094D03*
X0057606Y0068945D03*
X0124693Y0087055D03*
X0163866Y0075165D03*
X0164063Y0069693D03*
X0170283Y0081110D03*
X0176858Y0088157D03*
X0243709Y0086819D03*
X0250835Y0080874D03*
X0307449Y0075126D03*
X0397488Y0117961D03*
X0423984Y0119457D03*
X0363512Y0119024D03*
X0317803Y0137803D03*
X0304299Y0119142D03*
X0230047Y0121937D03*
X0405638Y0147173D03*
D26*
X0409764Y0143047D01*
X0409764Y0141386D01*
X0399614Y0141039D02*
X0399614Y0135480D01*
X0400992Y0134102D01*
X0416937Y0134102D01*
X0419516Y0131524D01*
X0419516Y0127803D01*
X0411248Y0127803D02*
X0400402Y0127803D01*
X0400382Y0127783D01*
X0423984Y0119563D02*
X0423984Y0119457D01*
X0423984Y0119563D02*
X0428685Y0124264D01*
X0428685Y0131264D02*
X0428709Y0131287D01*
X0428709Y0140362D01*
X0427685Y0141386D01*
X0420961Y0141386D01*
X0399614Y0141039D02*
X0399287Y0141366D01*
X0368591Y0140205D02*
X0368591Y0131130D01*
X0368567Y0131106D01*
X0360717Y0131346D02*
X0360717Y0127606D01*
X0352449Y0127606D02*
X0341937Y0127606D01*
X0343039Y0134102D02*
X0357961Y0134102D01*
X0360717Y0131346D01*
X0343039Y0134102D02*
X0341661Y0135480D01*
X0341661Y0140606D01*
X0340843Y0141425D01*
X0348512Y0147764D02*
X0351024Y0145252D01*
X0351024Y0141425D01*
X0362220Y0141425D02*
X0367370Y0141425D01*
X0368591Y0140205D01*
X0348512Y0147764D02*
X0320047Y0147764D01*
X0318827Y0146543D01*
X0318827Y0138827D01*
X0317803Y0137803D01*
X0309142Y0139378D02*
X0309142Y0131240D01*
X0309197Y0131185D01*
X0300717Y0130953D02*
X0300717Y0127646D01*
X0300717Y0130953D02*
X0297449Y0134220D01*
X0282331Y0134220D01*
X0282016Y0134535D01*
X0282016Y0140606D01*
X0281236Y0141386D01*
X0290283Y0142087D02*
X0290283Y0144850D01*
X0288591Y0147843D01*
X0256031Y0147843D01*
X0255598Y0148394D01*
X0255598Y0156740D01*
X0255402Y0156937D01*
X0245402Y0156937D02*
X0245323Y0156858D01*
X0235717Y0156858D01*
X0232913Y0154055D01*
X0232913Y0141386D01*
X0224417Y0139386D02*
X0224417Y0135441D01*
X0225559Y0134299D01*
X0239614Y0134299D01*
X0242685Y0131228D01*
X0242646Y0131228D01*
X0242646Y0127528D01*
X0247370Y0121846D02*
X0251520Y0124028D01*
X0247370Y0121846D02*
X0230047Y0121937D01*
X0234378Y0127528D02*
X0223512Y0127528D01*
X0251504Y0131043D02*
X0251520Y0131028D01*
X0251504Y0131043D02*
X0251504Y0139457D01*
X0249575Y0141386D01*
X0244110Y0141386D01*
X0224417Y0139386D02*
X0222417Y0141386D01*
X0282331Y0127646D02*
X0292449Y0127646D01*
X0304299Y0119287D02*
X0304299Y0119142D01*
X0304299Y0119287D02*
X0309197Y0124185D01*
X0309142Y0139378D02*
X0307134Y0141386D01*
X0302181Y0141386D01*
X0290984Y0141386D02*
X0290283Y0142087D01*
X0363512Y0119051D02*
X0363512Y0119024D01*
X0363512Y0119051D02*
X0368567Y0124106D01*
X0397134Y0117606D02*
X0397488Y0117961D01*
X0397134Y0117606D02*
X0397134Y0074063D01*
X0392724Y0069654D01*
X0164063Y0069693D01*
X0163866Y0075165D02*
X0305835Y0075126D01*
X0307449Y0075126D01*
X0250835Y0080874D02*
X0170283Y0081110D01*
X0176858Y0088157D02*
X0179102Y0086780D01*
X0243709Y0086819D01*
X0131504Y0114811D02*
X0128669Y0111976D01*
X0128669Y0111858D01*
X0127173Y0110362D01*
X0114870Y0110362D01*
X0114870Y0118236D02*
X0124850Y0118236D01*
X0124890Y0118197D01*
X0114870Y0126110D02*
X0114555Y0125795D01*
X0112252Y0125795D01*
X0111858Y0125402D01*
X0105598Y0125402D01*
X0099535Y0118551D02*
X0096465Y0115480D01*
X0096465Y0105047D01*
X0093906Y0102488D01*
X0050303Y0102488D01*
X0050303Y0094614D02*
X0059142Y0094614D01*
X0060126Y0093630D01*
X0061150Y0086740D02*
X0050303Y0086740D01*
X0061150Y0086740D02*
X0061898Y0085992D01*
X0071425Y0084811D02*
X0071425Y0080205D01*
X0066622Y0075402D01*
X0066622Y0071976D01*
X0064654Y0070008D01*
X0064654Y0063295D01*
X0064417Y0063059D01*
X0053315Y0064102D02*
X0053315Y0068433D01*
X0053827Y0068945D01*
X0057606Y0068945D01*
X0076819Y0065874D02*
X0081425Y0070047D01*
X0079063Y0072409D01*
X0079063Y0084732D01*
X0088827Y0089732D02*
X0093709Y0094614D01*
X0114870Y0094614D01*
X0115185Y0087055D02*
X0124693Y0087055D01*
X0115185Y0087055D02*
X0114870Y0086740D01*
X0088827Y0089732D02*
X0088827Y0063177D01*
X0088669Y0064220D02*
X0093748Y0069299D01*
X0114634Y0055579D02*
X0115185Y0055579D01*
X0114634Y0055579D02*
X0120913Y0055874D01*
X0087055Y0048591D02*
X0087055Y0032567D01*
X0081898Y0027409D01*
X0070559Y0038531D02*
X0071169Y0039220D01*
X0070874Y0044732D01*
X0052213Y0039063D02*
X0043906Y0047370D01*
X0032606Y0047370D01*
X0051622Y0039063D02*
X0052213Y0039063D01*
X0103197Y0101898D02*
X0103236Y0102488D01*
X0114870Y0102488D01*
X0088000Y0110559D02*
X0085638Y0108197D01*
X0061071Y0108197D01*
X0058906Y0110362D01*
X0050303Y0110362D01*
X0050303Y0118236D02*
X0070677Y0118236D01*
X0070953Y0117961D01*
X0070953Y0114220D01*
X0071031Y0114142D01*
X0078945Y0118433D02*
X0079063Y0118315D01*
X0078945Y0118433D02*
X0078945Y0132803D01*
X0077764Y0133984D01*
X0050303Y0133984D01*
X0105402Y0133630D02*
X0114516Y0133630D01*
X0114870Y0133984D01*
D27*
X0132862Y0131386D02*
X0132862Y0131228D01*
X0132862Y0131386D02*
X0143000Y0131386D01*
X0143177Y0078768D01*
X0126386Y0078827D01*
X0114909Y0078827D01*
X0114870Y0078866D01*
X0114870Y0063374D01*
X0115185Y0063059D01*
X0101819Y0063059D01*
X0101799Y0063039D01*
X0101799Y0055559D02*
X0088689Y0055559D01*
X0088669Y0055539D01*
X0088650Y0055520D01*
X0076622Y0055520D01*
X0064476Y0055520D01*
X0064417Y0055579D01*
X0052350Y0055579D01*
X0052311Y0055618D01*
X0050303Y0078866D02*
X0020874Y0078866D01*
X0016504Y0083236D01*
X0016504Y0122567D01*
X0023433Y0129496D01*
X0023591Y0129339D01*
X0032843Y0129339D01*
X0031031Y0131150D01*
X0031031Y0138630D01*
X0040451Y0148049D01*
X0127370Y0148049D01*
X0130451Y0144969D01*
X0136307Y0144969D01*
X0138925Y0147587D01*
X0138925Y0148315D01*
X0151996Y0135244D01*
X0184811Y0135244D01*
X0189929Y0140362D01*
X0189929Y0151386D01*
X0198992Y0155612D02*
X0198992Y0158858D01*
X0194378Y0163472D01*
X0167616Y0163472D01*
X0164693Y0160549D01*
X0161258Y0163984D01*
X0142783Y0163984D01*
X0138925Y0160126D01*
X0127793Y0160126D01*
X0127370Y0160549D01*
X0140303Y0154220D02*
X0149358Y0154220D01*
X0149358Y0148374D01*
X0151071Y0146661D01*
X0163305Y0146661D01*
X0164693Y0148049D01*
X0165582Y0147160D01*
X0180866Y0147160D01*
X0223512Y0127528D02*
X0223512Y0103827D01*
X0224772Y0102567D01*
X0253709Y0102567D01*
X0256740Y0105598D01*
X0259520Y0108378D01*
X0259520Y0127528D01*
X0268945Y0127646D02*
X0268945Y0141386D01*
X0270039Y0141386D01*
X0282331Y0127646D02*
X0282331Y0105402D01*
X0284850Y0102882D01*
X0313079Y0102882D01*
X0315717Y0105520D01*
X0317197Y0107000D01*
X0317197Y0127685D01*
X0328551Y0127606D02*
X0328551Y0141425D01*
X0329646Y0141425D01*
X0341937Y0127606D02*
X0341937Y0105244D01*
X0344024Y0103157D01*
X0372370Y0103157D01*
X0374772Y0105559D01*
X0376567Y0107354D01*
X0376567Y0127606D01*
X0386996Y0127783D02*
X0386996Y0141366D01*
X0388091Y0141366D01*
X0436685Y0127764D02*
X0436685Y0108299D01*
X0433886Y0105500D01*
X0070559Y0018846D02*
X0068807Y0017094D01*
X0060835Y0017094D01*
X0052843Y0017094D01*
X0051091Y0018846D01*
D28*
X0049654Y0078217D02*
X0050303Y0078866D01*
D29*
X0048866Y0077429D01*
X0048945Y0073276D01*
X0043669Y0068000D01*
X0043669Y0055756D01*
X0043807Y0055618D01*
X0052311Y0055618D01*
D30*
X0113453Y0026012D02*
X0123984Y0015480D01*
X0153335Y0015480D01*
D31*
X0202803Y0093079D02*
X0201898Y0093984D01*
X0201819Y0093984D01*
X0193669Y0102134D01*
X0193669Y0131051D01*
X0193492Y0131228D01*
X0210126Y0127528D02*
X0210126Y0140291D01*
X0211220Y0141386D01*
X0210126Y0127528D02*
X0210126Y0106228D01*
X0209496Y0105598D01*
X0209496Y0093709D01*
X0210126Y0093079D01*
X0202803Y0093079D01*
X0210126Y0093079D02*
X0268000Y0093079D01*
X0268472Y0093551D01*
X0268472Y0105520D01*
X0268945Y0105992D01*
X0268945Y0127646D01*
X0328551Y0127606D02*
X0328551Y0106583D01*
X0327528Y0105559D01*
X0327528Y0094102D01*
X0328551Y0093079D01*
X0268000Y0093079D01*
X0328551Y0093079D02*
X0384535Y0093079D01*
X0386642Y0095185D01*
X0386642Y0105500D01*
X0386642Y0127429D01*
X0386996Y0127783D01*
M02*
